<?xml version="1.0" standalone="no"?>
<!DOCTYPE svg PUBLIC "-//W3C//DTD SVG 20010904//EN"
 "http://www.w3.org/TR/2001/REC-SVG-20010904/DTD/svg10.dtd">
<svg version="1.0" xmlns="http://www.w3.org/2000/svg"
 width="900.000000pt" height="915.000000pt" viewBox="0 0 900.000000 915.000000"
 preserveAspectRatio="xMidYMid meet">
<metadata>
Created by potrace 1.10, written by Peter Selinger 2001-2011
</metadata>
<g transform="translate(0.000000,915.000000) scale(0.100000,-0.100000)"
fill="#000000" stroke="none">
<path d="M4135 8964 c-203 -16 -211 -17 -219 -46 -12 -45 -7 -255 7 -265 6 -6
66 -13 132 -16 156 -8 383 -57 530 -114 22 -8 58 -22 80 -30 22 -9 49 -19 60
-23 11 -5 82 -38 157 -74 434 -208 803 -509 1073 -872 22 -30 69 -76 105 -102
95 -71 200 -182 296 -309 46 -62 84 -115 84 -117 0 -3 11 -22 25 -42 28 -41
112 -212 139 -284 10 -25 24 -58 30 -75 12 -27 21 -56 62 -195 91 -312 129
-802 89 -1140 -8 -69 -15 -128 -15 -132 0 -13 22 -9 67 13 l43 21 0 136 c1
715 31 2389 47 2582 l6 85 9 -50 c4 -27 9 -655 10 -1395 l3 -1345 85 3 c167 7
288 54 392 152 l58 56 -2 1191 -3 1191 -25 27 c-135 146 -561 464 -795 595
-152 85 -221 122 -300 159 -49 24 -103 49 -119 57 -24 11 -31 12 -38 2 -4 -7
-8 -89 -8 -183 0 -93 -5 -246 -10 -340 -5 -93 -12 -258 -15 -365 -4 -109 -12
-201 -17 -208 -9 -10 -15 -9 -31 5 -19 17 -19 28 -13 328 11 588 11 792 -3
808 -6 8 -26 20 -44 27 -18 7 -46 19 -64 26 -17 8 -36 14 -42 14 -6 0 -25 6
-43 14 -40 17 -199 67 -288 90 -36 10 -78 21 -95 26 -85 25 -247 57 -445 90
-244 40 -624 50 -955 24z"/>
<path d="M3735 8914 c-283 -59 -343 -73 -408 -94 -18 -5 -86 -26 -152 -45 -66
-20 -145 -45 -175 -57 -252 -96 -613 -268 -636 -303 -10 -15 -16 -115 -24
-400 -20 -665 -24 -722 -59 -701 -13 8 -14 483 -2 811 4 116 6 216 3 223 -7
19 -27 15 -79 -16 -71 -42 -248 -164 -328 -225 l-70 -54 -6 -64 c-4 -35 -9
-302 -13 -593 -4 -291 -8 -532 -10 -535 -2 -3 -7 -220 -10 -481 -7 -511 -13
-822 -22 -1045 l-5 -140 21 27 c12 15 36 56 54 90 54 104 95 177 165 291 36
60 71 116 76 125 15 25 127 195 137 207 5 6 59 78 122 162 63 84 138 181 168
216 l55 64 7 269 c20 807 28 1014 41 1017 7 1 11 -204 13 -595 2 -522 4 -598
17 -598 8 0 15 4 15 9 0 20 393 402 510 495 111 89 280 215 330 248 77 50 172
110 192 123 9 5 42 24 73 40 32 17 64 39 71 50 10 16 14 111 16 435 3 452 7
410 -56 585 -35 96 -34 107 19 153 l46 40 -3 138 c-2 81 -7 138 -13 140 -5 1
-41 -5 -80 -12z"/>
<path d="M3833 8585 c-43 -30 -45 -48 -19 -128 13 -41 38 -104 55 -140 17 -36
31 -74 31 -83 0 -23 14 -68 62 -199 26 -69 39 -109 48 -140 10 -36 37 -112 49
-140 5 -11 12 -29 15 -40 2 -11 28 -85 56 -165 28 -80 55 -158 60 -175 5 -16
25 -75 45 -130 19 -55 53 -152 75 -215 22 -63 56 -160 75 -215 20 -55 40 -113
45 -130 5 -16 25 -75 45 -130 20 -55 40 -113 45 -130 4 -16 18 -55 30 -85 12
-30 26 -68 30 -85 5 -16 25 -75 45 -130 20 -55 40 -113 45 -130 5 -16 25 -75
45 -130 20 -55 40 -113 45 -130 15 -48 32 -74 52 -81 38 -12 5 -24 -66 -24
-85 0 -256 -30 -341 -60 -33 -12 -74 -25 -92 -31 -18 -5 -35 -14 -38 -19 -4
-6 -13 -10 -20 -10 -20 0 -154 -80 -228 -137 -230 -175 -393 -426 -447 -688
-20 -96 -21 -99 -103 -190 -142 -159 -220 -215 -295 -215 -52 0 -163 -42 -199
-76 -30 -28 -34 -38 -29 -61 9 -36 43 -62 80 -63 35 0 104 19 131 37 32 22 65
17 65 -10 0 -27 26 -67 44 -67 35 0 73 101 62 167 l-7 38 167 167 c91 93 170
166 174 163 11 -7 -21 -62 -55 -99 -46 -50 -47 -57 -16 -152 46 -142 96 -226
186 -318 58 -58 182 -146 207 -146 8 0 18 -4 24 -9 5 -6 27 -14 49 -20 22 -5
58 -15 80 -20 62 -16 250 -13 319 5 34 8 77 19 97 25 49 12 77 11 119 -4 64
-24 95 -41 155 -86 77 -57 118 -101 163 -176 31 -53 35 -68 36 -131 1 -56 -3
-76 -17 -91 -25 -28 -13 -50 47 -79 105 -53 113 -58 91 -62 -11 -1 -47 7 -80
19 -76 26 -115 34 -115 22 0 -27 154 -100 240 -114 25 -4 64 -13 87 -20 64
-19 97 -5 101 45 6 70 -67 149 -200 217 -63 31 -68 36 -68 66 0 79 -70 213
-155 299 -62 62 -179 144 -206 144 -5 0 -23 10 -39 22 -40 29 -25 47 35 41 41
-5 48 -2 127 57 116 87 198 169 281 280 40 53 77 105 84 115 16 26 82 161 98
200 68 167 89 410 45 530 -11 33 -25 74 -30 90 -9 34 -28 87 -43 125 -5 14
-13 39 -18 55 -4 17 -24 75 -44 130 -20 55 -40 114 -45 130 -5 17 -16 50 -26
75 -33 88 -85 236 -94 265 -4 17 -18 55 -30 85 -12 30 -24 64 -27 75 -2 11 -9
29 -14 40 -12 27 -39 104 -49 140 -4 17 -18 55 -30 85 -11 30 -32 87 -45 125
-13 39 -40 115 -60 170 -19 55 -53 152 -75 215 -22 63 -62 180 -90 260 -28 80
-55 159 -59 176 -5 18 -12 37 -16 44 -4 7 -11 26 -15 44 -5 17 -20 62 -34 100
-14 38 -26 80 -26 93 0 14 -7 31 -15 39 -16 17 -21 74 -6 74 11 0 21 -25 21
-56 0 -13 4 -24 8 -24 5 0 13 -10 18 -21 10 -21 17 -22 190 -24 180 -2 198 -4
364 -52 307 -87 596 -265 832 -512 87 -90 101 -101 132 -101 19 0 38 5 41 11
13 19 -48 94 -204 250 -237 237 -449 385 -721 506 -19 9 -47 22 -62 30 -14 7
-35 13 -45 13 -11 0 -28 7 -39 15 -10 8 -31 15 -45 15 -14 0 -34 7 -45 15 -10
8 -33 15 -50 15 -46 0 -94 11 -94 21 0 15 93 10 124 -6 15 -8 43 -15 60 -15
18 0 41 -7 52 -15 10 -8 30 -15 44 -15 14 0 34 -7 44 -15 11 -8 28 -15 37 -15
10 0 30 -7 46 -15 15 -8 75 -37 133 -65 165 -81 266 -144 398 -251 89 -72 274
-252 320 -311 20 -27 42 -48 49 -48 7 0 13 -5 13 -12 0 -6 2 -9 5 -7 20 20
-136 323 -229 444 -31 40 -131 157 -196 229 -49 53 -242 225 -320 283 -65 49
-281 193 -310 207 -8 4 -42 22 -75 41 -33 18 -85 46 -115 61 -30 14 -73 35
-95 46 -22 11 -51 24 -65 28 -14 5 -50 18 -80 30 -30 12 -102 36 -160 55 -95
30 -136 39 -310 75 -30 7 -113 14 -185 17 -110 4 -133 2 -152 -12z m927 -695
c0 -11 -70 -11 -115 0 -23 6 -12 8 43 9 42 1 72 -3 72 -9z m-311 -817 c0 -25
-1 -25 -8 -8 -5 11 -7 23 -4 28 8 14 13 7 12 -20z m36 -101 c-6 -15 -8 -14
-16 6 -11 29 0 52 13 28 5 -10 7 -25 3 -34z m31 -67 c4 -14 3 -29 0 -33 -9 -8
-26 18 -26 41 0 26 19 20 26 -8z m28 -71 c9 -23 7 -54 -3 -54 -11 0 -21 25
-21 51 0 23 15 25 24 3z m30 -80 c3 -9 6 -26 6 -39 0 -12 7 -28 15 -35 8 -7
15 -26 15 -42 0 -16 7 -36 15 -44 8 -9 15 -28 15 -43 0 -16 7 -34 15 -41 8 -7
15 -22 15 -34 0 -12 6 -30 14 -41 7 -11 16 -31 19 -45 3 -14 13 -45 23 -70 37
-98 86 -237 94 -268 4 -18 12 -38 18 -45 5 -7 12 -23 15 -37 6 -28 55 -167 88
-250 30 -77 35 -110 16 -110 -23 0 -34 19 -61 105 -15 44 -30 89 -35 100 -12
31 -32 87 -41 120 -5 17 -14 46 -21 65 -6 19 -17 51 -24 70 -7 19 -18 51 -24
70 -7 19 -17 51 -23 70 -5 19 -14 39 -19 44 -5 6 -9 22 -9 36 0 14 -7 35 -15
46 -8 10 -15 31 -15 45 0 14 -7 34 -15 45 -8 10 -15 33 -15 50 0 17 -7 37 -15
44 -8 7 -15 27 -15 45 0 18 -7 38 -15 45 -8 7 -15 26 -15 42 0 16 -7 36 -15
44 -8 9 -15 29 -15 45 0 31 14 39 24 13z m617 -1538 c34 -31 53 -79 45 -112
-9 -35 -65 -91 -100 -100 -33 -8 -81 11 -112 45 -19 20 -24 37 -24 75 0 43 5
55 32 83 28 29 38 33 83 33 39 0 56 -5 76 -24z m-757 -150 c68 -28 102 -115
71 -176 -34 -66 -96 -96 -162 -78 -75 20 -115 89 -98 167 17 79 108 121 189
87z m642 -214 c23 -16 44 -94 44 -166 0 -140 -67 -226 -176 -226 -98 0 -167
57 -234 192 -26 54 -30 71 -21 82 7 8 65 31 129 51 64 21 133 43 152 51 59 22
90 27 106 16z"/>
<path d="M3897 8017 c-10 -28 -8 -525 3 -532 5 -3 46 11 90 32 83 40 92 52 68
96 -6 12 -15 35 -19 52 -4 16 -17 55 -29 85 -12 30 -26 69 -30 85 -15 52 -43
128 -60 163 -13 25 -19 30 -23 19z"/>
<path d="M1640 7918 c-185 -161 -494 -485 -553 -578 -13 -21 -16 -83 -22 -390
-7 -445 -32 -1071 -45 -1162 -6 -37 -10 -113 -11 -170 -1 -57 -4 -114 -8 -128
-9 -33 -21 641 -21 1221 0 259 -4 460 -9 463 -7 5 -106 -127 -146 -196 -137
-233 -189 -327 -250 -452 -97 -201 -208 -488 -262 -676 -18 -63 -25 -91 -72
-290 -27 -118 -41 -191 -41 -221 0 -19 -4 -50 -10 -69 -36 -136 -61 -688 -40
-895 6 -66 15 -160 20 -210 7 -86 12 -122 46 -315 40 -228 154 -633 210 -743
8 -16 14 -32 14 -37 0 -4 10 -29 21 -55 15 -34 24 -44 29 -34 4 8 10 185 14
394 16 892 46 1410 82 1422 18 6 21 -99 17 -662 -2 -286 -5 -725 -6 -975 l-1
-455 35 -65 c20 -36 53 -96 74 -135 20 -38 43 -77 50 -85 7 -8 31 -48 55 -88
23 -40 47 -75 53 -79 17 -10 97 -3 142 12 128 43 198 93 230 164 15 34 16 46
6 83 -19 69 -41 340 -41 508 -1 350 54 749 155 1125 35 133 74 263 91 303 8
18 14 39 14 47 0 8 6 29 14 47 8 18 21 51 29 73 25 67 49 128 63 160 7 17 22
55 34 85 12 30 32 78 45 105 57 129 53 71 60 880 4 413 9 770 10 795 2 25 7
333 11 686 5 460 4 643 -4 648 -6 3 -43 -22 -82 -56z"/>
<path d="M7548 7343 c-2 -192 -2 -681 0 -1089 l3 -740 102 -53 c56 -29 129
-68 162 -86 33 -19 89 -49 125 -68 36 -19 90 -48 120 -64 95 -53 263 -142 447
-239 43 -23 103 -56 133 -73 107 -61 160 -85 169 -75 6 5 6 58 1 129 -22 297
-72 559 -176 925 -20 71 -58 178 -114 320 -52 134 -70 175 -152 340 -104 209
-164 313 -287 495 -83 124 -82 123 -190 260 -111 142 -313 365 -331 365 -5 0
-10 -156 -12 -347z"/>
<path d="M3837 7023 c-10 -326 -9 -1065 2 -1059 4 3 9 65 9 138 1 73 5 361 8
641 5 329 3 507 -3 507 -6 0 -12 -90 -16 -227z"/>
<path d="M5800 6448 c-66 -35 -85 -66 -85 -147 0 -72 18 -107 73 -143 40 -26
59 -22 106 22 23 22 63 53 90 70 l49 31 -7 47 c-7 54 -41 95 -101 123 -52 24
-72 24 -125 -3z"/>
<path d="M5967 6170 c-70 -53 -78 -68 -50 -91 9 -8 100 -111 201 -229 102
-118 193 -216 203 -218 20 -4 75 33 84 56 5 13 -30 66 -84 125 -23 25 -62 86
-91 142 -21 40 -175 259 -185 262 -6 2 -41 -20 -78 -47z"/>
<path d="M6004 5753 c3 -82 9 -209 12 -283 4 -74 10 -139 14 -144 5 -5 19 3
33 16 24 24 24 29 20 119 -13 250 -30 399 -48 419 -35 38 -38 25 -31 -127z"/>
<path d="M6372 5570 c-12 -16 -22 -33 -22 -38 0 -11 -117 -127 -151 -150 -103
-68 -232 -202 -268 -277 -34 -71 -48 -188 -33 -280 12 -70 61 -184 80 -185 16
0 15 21 -5 88 -11 39 -17 97 -17 182 -1 110 2 130 21 166 33 62 107 139 183
189 87 58 160 123 204 183 35 49 69 129 60 144 -10 16 -31 7 -52 -22z"/>
<path d="M7537 5372 c-10 -10 -17 -23 -17 -29 0 -17 -124 -126 -167 -147 -96
-46 -110 -60 -76 -73 10 -4 50 -25 88 -48 39 -22 77 -44 85 -48 8 -4 29 -16
45 -27 17 -11 37 -23 45 -27 8 -4 44 -24 79 -46 35 -21 74 -43 85 -48 12 -5
35 -18 51 -29 17 -11 39 -24 50 -30 11 -6 34 -19 50 -30 17 -11 37 -23 45 -27
8 -4 49 -27 90 -51 96 -56 91 -53 185 -109 44 -26 89 -53 100 -60 11 -7 27
-15 35 -19 8 -4 33 -19 55 -33 42 -27 48 -30 130 -75 28 -15 64 -36 80 -47 17
-10 39 -23 50 -29 11 -6 29 -16 40 -23 146 -87 145 -87 146 -4 1 34 3 73 4 87
11 135 14 270 7 294 -8 31 -23 40 -182 124 -159 84 -280 149 -400 215 -30 16
-84 45 -120 64 -36 19 -92 50 -125 68 -33 18 -87 47 -120 64 -131 68 -208 110
-218 120 -6 6 -19 11 -28 11 -9 0 -22 7 -29 15 -17 20 -43 19 -63 -3z"/>
<path d="M7050 5119 c-125 -12 -208 -30 -226 -50 -18 -20 -11 -39 13 -39 8 0
27 -6 41 -14 15 -8 74 -38 132 -66 58 -29 132 -67 165 -86 33 -18 69 -38 80
-44 11 -6 34 -19 50 -30 17 -11 37 -23 45 -27 29 -13 106 -67 240 -167 278
-207 512 -478 609 -706 24 -55 38 -72 76 -90 11 -6 61 -39 110 -75 193 -138
286 -198 294 -189 12 15 57 219 85 384 30 177 35 218 29 239 -3 12 -30 35 -62
53 -31 18 -65 38 -76 45 -11 7 -29 17 -40 23 -11 6 -33 19 -50 30 -16 11 -37
23 -45 27 -8 4 -82 47 -163 95 -82 48 -150 88 -152 88 -1 0 -81 46 -176 103
-96 57 -181 106 -189 110 -8 4 -28 16 -45 27 -16 11 -37 23 -45 27 -8 4 -69
39 -135 78 -66 39 -127 74 -135 78 -8 4 -28 16 -45 27 -16 11 -39 24 -50 30
-11 6 -33 19 -50 30 -16 11 -39 24 -50 30 -35 19 -63 35 -76 47 -22 17 -68 21
-159 12z"/>
<path d="M6041 5086 c-22 -34 -22 -38 -11 -253 6 -120 13 -227 15 -238 2 -12
7 -153 11 -315 4 -165 11 -304 17 -314 9 -19 10 -19 22 -2 23 31 27 194 15
577 -15 461 -22 571 -36 576 -7 2 -21 -12 -33 -31z"/>
<path d="M6655 5018 c-16 -12 -50 -39 -76 -59 -55 -46 -163 -100 -244 -124
-124 -36 -185 -68 -185 -97 0 -12 35 -10 77 6 127 46 201 66 231 60 28 -6 32
-4 32 14 0 13 13 27 40 41 53 27 168 118 181 142 21 41 -10 50 -56 17z"/>
<path d="M5643 4771 c-18 -10 -49 -30 -68 -46 -31 -23 -44 -26 -92 -23 -32 2
-58 -1 -60 -7 -4 -12 29 -49 79 -88 20 -16 44 -46 53 -68 26 -56 45 -51 45 11
0 48 1 49 43 68 23 10 54 22 68 25 37 9 79 52 79 81 0 32 -44 66 -84 65 -17 0
-45 -8 -63 -18z"/>
<path d="M5813 4562 c-98 -86 -189 -156 -228 -175 -16 -8 -65 -25 -107 -38
-78 -23 -91 -36 -63 -59 16 -13 88 -8 122 8 10 5 47 23 83 40 36 18 97 59 135
92 39 33 77 60 87 60 9 0 21 13 27 30 5 17 15 30 20 30 6 0 18 11 27 25 13 20
14 28 4 40 -7 8 -16 15 -21 15 -5 0 -43 -31 -86 -68z"/>
<path d="M6176 4263 c-3 -21 -6 -76 -6 -123 0 -77 -14 -148 -48 -255 -5 -16
-24 -77 -42 -135 -17 -58 -38 -125 -46 -150 -8 -25 -14 -56 -14 -70 0 -14 -7
-45 -16 -70 -13 -35 -16 -88 -17 -240 0 -167 3 -207 21 -279 12 -46 24 -86 27
-89 15 -15 25 29 20 88 -3 36 -6 171 -7 300 -2 175 1 243 11 265 7 17 17 44
21 60 5 17 20 61 34 99 14 38 26 82 26 97 0 16 6 43 14 61 25 61 46 143 56
225 9 66 8 98 -5 165 -8 45 -17 83 -19 85 -2 2 -6 -13 -10 -34z"/>
<path d="M5210 4261 c-15 -28 -14 -29 28 -37 57 -10 172 -68 221 -110 51 -44
101 -118 101 -149 0 -38 19 -45 120 -45 100 0 152 -14 89 -24 -19 -3 -70 -8
-114 -12 -102 -9 -68 -22 62 -23 85 -1 97 2 165 33 40 19 81 41 91 49 26 22
22 69 -11 100 -24 23 -40 28 -103 33 -40 3 -112 1 -159 -5 l-85 -10 -50 48
c-116 110 -220 171 -294 171 -39 0 -53 -4 -61 -19z"/>
<path d="M2547 3700 c-5 -228 -12 -471 -17 -540 -10 -139 -16 -150 -80 -150
-87 0 -230 -64 -314 -141 -47 -42 -66 -54 -107 -60 -35 -6 -70 -22 -124 -61
-234 -164 -202 -148 -346 -169 -127 -19 -191 -40 -219 -74 -8 -10 -24 -21 -37
-26 -29 -11 -29 -27 0 -34 15 -4 43 5 82 25 41 22 69 30 90 27 17 -2 34 1 40
9 5 7 52 19 103 28 85 14 101 21 180 73 48 31 113 76 145 100 44 31 72 44 110
49 40 6 60 15 93 46 22 21 51 38 63 38 11 0 21 6 21 14 0 42 156 108 259 110
60 1 71 5 106 34 26 21 50 32 71 32 57 0 183 48 243 93 31 24 68 50 83 60 30
18 113 23 123 7 10 -17 23 -11 27 11 2 14 15 25 39 33 20 7 70 37 111 67 76
55 95 63 228 94 56 13 89 28 130 59 96 72 106 77 135 66 35 -13 40 -13 25 5
-16 19 -6 32 29 40 16 3 35 13 41 20 33 40 -46 47 -118 11 -26 -13 -79 -49
-118 -79 -70 -55 -104 -69 -199 -82 -69 -9 -107 -27 -184 -85 -79 -58 -101
-67 -205 -86 -70 -12 -87 -20 -153 -70 -70 -52 -181 -103 -228 -104 -11 -1
-37 -7 -58 -14 -27 -10 -39 -11 -45 -2 -4 6 -9 243 -12 526 l-5 515 -8 -415z"/>
<path d="M3959 3783 c-5 -13 -9 -59 -9 -101 0 -42 -5 -115 -10 -162 -6 -47
-15 -152 -20 -235 -5 -82 -13 -202 -19 -265 -49 -553 -50 -573 -16 -578 47 -7
55 13 65 178 9 156 18 270 46 585 8 94 14 192 14 219 0 27 7 116 16 197 18
161 16 172 -32 182 -20 3 -27 -1 -35 -20z"/>
<path d="M4441 3761 c-19 -12 -13 -113 35 -566 8 -77 14 -162 14 -190 0 -27 7
-111 15 -185 8 -74 22 -216 31 -315 9 -99 18 -186 20 -192 5 -17 79 -17 93 0
11 14 10 20 -20 262 -6 50 -15 133 -19 185 -4 52 -13 127 -19 165 -11 72 -31
239 -37 310 -2 22 -11 99 -19 170 -8 72 -20 177 -26 235 -14 125 -26 147 -68
121z"/>
<path d="M4240 3736 c-8 -10 -11 -54 -10 -133 1 -65 1 -123 1 -130 -1 -14 -4
-17 -104 -107 -43 -39 -77 -77 -77 -87 0 -11 4 -19 8 -19 5 0 40 27 80 60 93
79 103 78 95 -3 -6 -67 9 -96 43 -83 13 5 15 22 13 106 -1 55 2 105 7 110 5 5
29 10 54 12 53 4 65 31 15 36 -79 7 -75 0 -75 126 0 95 -3 115 -16 120 -21 8
-20 8 -34 -8z"/>
<path d="M4735 3740 c-4 -6 0 -45 9 -88 8 -42 20 -114 26 -159 l12 -81 -86
-98 c-80 -91 -102 -133 -78 -148 5 -3 40 30 78 74 38 43 76 78 83 77 10 -1 19
-26 27 -77 7 -41 18 -109 25 -150 7 -41 14 -101 17 -133 l4 -57 -54 -59 c-96
-103 -128 -147 -128 -175 0 -14 2 -26 5 -26 3 0 45 41 94 91 52 54 93 89 100
85 6 -4 11 -22 11 -41 0 -48 9 -65 35 -65 33 0 36 18 19 127 -9 54 -19 127
-24 163 -12 94 -29 204 -46 290 -8 42 -14 88 -14 103 0 15 -6 60 -14 100 -8
40 -17 103 -21 141 -5 53 -12 74 -30 92 -26 26 -40 30 -50 14z"/>
<path d="M4103 3713 c-23 -15 -31 -47 -15 -57 15 -9 72 33 72 54 0 24 -25 26
-57 3z"/>
<path d="M8276 3628 c17 -144 6 -319 -26 -408 -31 -85 -75 -186 -87 -201 -7
-8 -13 -19 -13 -23 0 -4 -11 -22 -25 -40 -14 -18 -25 -41 -24 -52 0 -23 238
-214 256 -207 7 3 24 30 39 61 39 84 104 232 119 272 50 133 78 213 95 265 11
33 27 82 36 109 l17 49 -29 23 c-71 56 -193 141 -229 159 -22 11 -57 30 -77
42 -58 36 -61 33 -52 -49z"/>
<path d="M6116 3529 c-2 -19 -10 -67 -16 -107 -11 -67 -9 -226 5 -442 3 -36 5
-122 6 -190 1 -69 4 -130 6 -137 8 -20 50 -16 55 5 5 24 -10 590 -20 750 -8
132 -25 190 -36 121z"/>
<path d="M4582 3443 c3 -26 7 -28 67 -35 72 -8 81 -5 81 23 0 25 -36 39 -101
39 -49 0 -50 -1 -47 -27z"/>
<path d="M4042 3188 c3 -7 29 -16 60 -19 30 -3 61 -10 68 -14 6 -4 53 -11 104
-16 50 -5 106 -11 124 -15 25 -5 32 -3 32 10 0 23 -32 36 -87 36 -26 0 -88 7
-138 15 -113 19 -168 19 -163 3z"/>
<path d="M4242 3077 c-6 -7 -10 -33 -9 -57 1 -41 -1 -46 -63 -102 -36 -32 -84
-73 -107 -91 -23 -18 -45 -40 -49 -51 -14 -43 16 -30 96 39 88 78 112 88 130
55 6 -11 17 -20 25 -20 15 0 22 21 27 75 l3 30 78 -3 c72 -4 79 -2 75 14 -3
15 -18 21 -78 29 -73 10 -75 11 -78 40 -6 48 -29 68 -50 42z"/>
<path d="M4647 2954 c-4 -4 -7 -15 -7 -25 0 -21 22 -28 95 -32 37 -1 50 2 52
13 3 11 -12 19 -53 28 -31 8 -62 16 -68 18 -7 3 -15 1 -19 -2z"/>
<path d="M7930 2721 c-119 -121 -216 -200 -357 -291 -46 -29 -83 -57 -83 -61
0 -5 55 -50 123 -99 67 -50 147 -110 177 -134 98 -77 146 -107 160 -101 14 5
217 301 257 374 10 18 23 41 28 50 38 60 85 150 85 162 0 23 -254 226 -272
218 -2 -1 -55 -54 -118 -118z"/>
<path d="M5988 2686 c-57 -20 -119 -61 -165 -107 -52 -51 -57 -86 -15 -95 15
-3 44 -12 65 -20 26 -10 82 -14 182 -14 79 0 146 -4 149 -9 7 -10 -8 -14 -129
-31 -78 -11 -152 -5 -277 26 -25 6 -28 3 -28 -18 0 -34 18 -52 70 -73 68 -26
341 -24 425 4 157 52 208 76 203 94 -5 15 -101 81 -153 105 -99 46 -119 52
-165 52 -53 0 -71 15 -84 73 -7 30 -22 33 -78 13z"/>
<path d="M4004 2646 c-13 -35 14 -46 113 -46 52 0 121 -6 152 -14 31 -8 91
-16 134 -19 71 -5 77 -4 77 14 0 15 -7 19 -32 19 -18 0 -75 6 -128 14 -52 8
-131 20 -175 26 -44 6 -92 14 -107 17 -20 4 -30 1 -34 -11z"/>
<path d="M6230 2651 c0 -12 49 -51 65 -51 19 0 122 -57 185 -102 72 -53 380
-367 380 -388 0 -11 -15 -23 -42 -32 -24 -8 -59 -20 -78 -27 -19 -7 -51 -16
-70 -20 -46 -10 -80 -29 -80 -44 1 -7 65 -60 143 -119 190 -144 384 -293 427
-328 20 -16 50 -39 67 -52 17 -13 50 -38 74 -55 23 -18 50 -33 59 -33 42 0
540 531 540 575 0 9 -8 19 -17 22 -22 9 -172 108 -273 181 -167 121 -198 142
-211 142 -8 0 -63 -24 -124 -54 -151 -73 -253 -115 -297 -123 -38 -6 -38 -5
-195 154 -139 139 -253 240 -318 280 -98 61 -235 104 -235 74z"/>
<path d="M5032 2469 c2 -7 10 -15 17 -17 8 -3 12 1 9 9 -2 7 -10 15 -17 17 -8
3 -12 -1 -9 -9z"/>
<path d="M1280 2381 c0 -15 -97 -106 -132 -122 -53 -26 -109 -47 -170 -64 -32
-9 -58 -21 -58 -26 0 -10 79 -118 179 -244 160 -202 445 -491 631 -639 215
-171 400 -298 625 -427 63 -36 295 -152 355 -178 103 -45 147 -63 250 -103 13
-5 51 -18 85 -29 33 -11 68 -24 77 -29 10 -6 34 -14 55 -19 21 -5 63 -16 93
-25 162 -46 204 -57 219 -54 10 2 -300 320 -866 887 -486 486 -883 888 -883
895 0 11 -19 20 -100 51 -82 31 -199 80 -255 106 -59 29 -105 37 -105 20z"/>
<path d="M1852 2173 c-17 -6 1765 -1782 1793 -1788 11 -2 56 -10 100 -19 329
-62 975 -89 975 -41 0 7 -331 340 -736 741 -406 401 -745 742 -755 758 -14 23
-25 29 -56 30 -21 1 -67 8 -103 15 -36 7 -101 19 -145 27 -145 27 -306 62
-420 90 -33 9 -87 22 -120 31 -84 21 -165 43 -200 55 -16 5 -46 13 -65 18 -19
4 -46 12 -60 18 -14 5 -56 20 -94 31 -38 12 -76 25 -85 30 -9 5 -22 6 -29 4z"/>
<path d="M6395 1956 c-37 -12 -102 -27 -265 -61 -36 -8 -99 -21 -140 -30 -41
-8 -94 -15 -117 -15 -76 0 -66 -26 42 -108 33 -25 65 -50 70 -56 6 -6 55 -47
110 -91 55 -44 105 -85 110 -91 6 -5 33 -28 60 -49 28 -22 55 -44 61 -50 7 -5
67 -55 135 -110 67 -55 172 -141 233 -191 61 -50 120 -94 130 -97 23 -9 184
97 346 226 117 93 135 111 125 127 -4 6 -61 52 -128 102 -67 51 -126 97 -132
103 -5 6 -66 54 -135 105 -69 52 -139 105 -156 119 -34 28 -99 78 -184 141
-60 44 -92 49 -165 26z"/>
<path d="M3324 1818 c-4 -6 152 -168 347 -360 195 -193 532 -527 749 -744 454
-452 382 -406 595 -379 175 23 316 49 515 96 95 23 101 25 255 74 182 58 219
71 222 82 2 6 -15 28 -39 50 -23 21 -65 59 -93 84 -27 25 -99 88 -160 139 -60
52 -114 100 -120 105 -5 6 -39 36 -75 66 -65 54 -129 110 -159 140 -9 8 -65
58 -126 109 -60 52 -114 100 -120 106 -5 6 -59 53 -120 105 -60 51 -112 96
-115 100 -22 28 -176 150 -195 155 -14 3 -44 4 -67 2 -135 -14 -759 19 -1083
57 -191 23 -205 24 -211 13z"/>
<path d="M5600 1809 c-25 -5 -103 -13 -173 -19 -71 -5 -132 -12 -137 -15 -5
-3 -109 -10 -231 -15 -122 -6 -225 -13 -231 -16 -16 -10 25 -60 97 -119 39
-32 72 -60 75 -64 3 -4 70 -63 150 -131 80 -69 150 -130 155 -136 6 -6 60 -53
120 -105 61 -51 115 -99 120 -105 6 -6 39 -35 75 -65 67 -56 131 -113 159
-140 9 -8 45 -40 81 -70 35 -30 81 -69 102 -88 100 -90 114 -101 134 -101 35
0 272 107 440 198 191 105 234 131 234 142 0 8 -69 68 -195 170 -37 30 -87 71
-110 90 -23 19 -72 60 -110 90 -86 70 -263 216 -295 244 -14 11 -57 46 -96 76
-39 30 -110 85 -157 123 -92 73 -104 76 -207 56z"/>
</g>
</svg>
