<?xml version="1.0" standalone="no"?>
<!DOCTYPE svg PUBLIC "-//W3C//DTD SVG 20010904//EN"
 "http://www.w3.org/TR/2001/REC-SVG-20010904/DTD/svg10.dtd">
<svg version="1.0" xmlns="http://www.w3.org/2000/svg"
 width="1535.000000pt" height="1543.000000pt" viewBox="0 0 1535.000000 1543.000000"
 preserveAspectRatio="xMidYMid meet">

<g transform="translate(0.000000,1543.000000) scale(0.100000,-0.100000)"
fill="#000000" stroke="none">
<path d="M6679 15296 c-2 -3 -27 -7 -54 -9 -44 -4 -52 -8 -65 -35 -12 -26 -19
-137 -10 -162 2 -3 2 -8 2 -11 -1 -3 -4 -75 -7 -160 l-6 -154 71 3 72 4 -4 34
c-2 18 0 35 5 37 11 3 16 102 7 144 -4 18 -5 34 -2 37 8 9 11 224 3 252 -3 14
-9 23 -12 20z"/>
<path d="M10553 14652 c-1 -75 -4 -549 -7 -1052 -3 -503 -6 -991 -7 -1085 l-1
-170 36 -78 c21 -44 39 -77 40 -75 2 1 6 144 10 316 3 173 8 317 11 321 6 11
15 207 18 403 1 93 4 168 7 168 3 0 6 57 7 128 4 230 13 527 17 555 2 15 -1
30 -5 33 -5 3 -5 13 0 22 5 9 9 76 9 147 0 72 2 202 5 291 l5 161 -66 24 c-36
13 -69 25 -72 26 -3 2 -6 -59 -7 -135z"/>
<path d="M6616 14662 c-26 -5 -96 -52 -96 -64 0 -4 -12 -14 -26 -20 -23 -11
-25 -16 -20 -50 4 -22 10 -47 15 -56 26 -52 52 -117 60 -150 27 -106 77 -251
92 -266 5 -6 9 -18 9 -28 0 -10 23 -78 50 -152 28 -74 50 -141 50 -150 0 -9 4
-16 9 -16 5 0 14 -24 21 -52 6 -29 21 -78 32 -108 24 -67 94 -272 109 -320 6
-19 19 -53 29 -75 17 -37 64 -174 113 -325 11 -36 23 -67 27 -70 9 -8 30 -75
30 -96 0 -10 7 -28 15 -38 8 -11 15 -28 15 -38 0 -10 9 -37 21 -59 11 -23 18
-43 15 -46 -2 -3 5 -26 16 -51 11 -26 22 -56 24 -67 2 -11 8 -30 14 -42 19
-43 28 -68 66 -183 45 -138 82 -244 100 -287 8 -17 14 -40 14 -50 0 -10 4 -23
8 -29 11 -13 47 -107 68 -179 9 -33 20 -64 24 -70 4 -5 13 -32 20 -60 7 -27
16 -54 20 -60 4 -5 15 -35 24 -65 9 -30 24 -69 31 -86 8 -17 16 -40 18 -50 2
-11 9 -32 15 -47 7 -16 12 -34 12 -42 0 -8 4 -16 9 -19 5 -3 12 -20 15 -38 3
-18 8 -42 10 -53 6 -26 52 -163 121 -360 57 -160 95 -270 219 -635 37 -107 71
-204 76 -215 5 -11 24 -63 41 -115 18 -52 36 -101 42 -107 5 -7 10 -28 11 -45
1 -30 5 -34 44 -42 23 -5 42 -13 42 -17 0 -10 -1 -10 -97 -14 -33 -1 -65 -5
-70 -7 -4 -3 -24 -4 -43 -2 -47 5 -228 -14 -315 -32 -38 -9 -80 -17 -92 -20
-112 -22 -439 -158 -544 -225 -33 -22 -62 -39 -65 -39 -23 0 -263 -183 -350
-267 -17 -15 -42 -39 -57 -52 l-27 -24 5 574 c3 316 8 822 10 1124 3 303 7
852 10 1220 3 369 7 839 10 1045 11 752 10 886 -2 911 -7 13 -22 53 -33 89
-12 36 -28 80 -36 98 -8 18 -17 40 -19 50 -5 28 -23 70 -32 75 -4 3 -9 -124
-10 -281 -2 -158 -3 -287 -4 -287 -1 0 -9 -372 -8 -410 0 -11 2 -51 4 -90 6
-95 6 -414 -1 -730 -7 -382 -14 -1030 -19 -1995 -8 -1261 -12 -1546 -21 -1561
-4 -8 -34 -51 -66 -96 -32 -45 -58 -86 -58 -91 0 -5 -9 -17 -20 -27 -11 -10
-20 -26 -20 -36 0 -10 -5 -21 -11 -24 -14 -9 -78 -142 -112 -235 -16 -41 -34
-91 -42 -110 -24 -65 -46 -154 -59 -247 -13 -89 -22 -113 -62 -160 -11 -11
-35 -41 -54 -65 -38 -47 -234 -246 -315 -319 -81 -73 -107 -89 -155 -93 -83
-9 -204 -36 -301 -66 -79 -26 -104 -39 -149 -80 -51 -47 -54 -51 -54 -101 -1
-48 1 -53 43 -90 43 -38 45 -39 120 -39 86 0 139 14 228 60 83 42 97 39 101
-26 2 -38 10 -59 31 -84 26 -31 30 -33 62 -24 29 8 39 19 67 77 28 57 34 79
35 145 1 42 -2 92 -7 110 -9 33 -7 35 114 150 68 64 133 128 144 141 53 63
321 322 323 314 7 -20 -69 -134 -128 -192 -59 -59 -59 -86 2 -266 73 -216 182
-397 323 -540 209 -210 445 -321 756 -356 93 -10 252 -7 330 6 91 16 139 26
205 44 41 12 106 24 143 27 102 10 160 -11 357 -126 64 -38 199 -165 253 -238
65 -88 121 -192 138 -256 24 -89 18 -135 -26 -222 l-40 -79 28 -23 c15 -12 68
-43 117 -68 50 -26 106 -55 125 -66 l35 -19 -60 6 c-33 4 -72 8 -86 11 -34 5
-137 52 -168 76 -33 25 -56 23 -69 -7 -10 -22 -8 -29 17 -55 15 -17 33 -30 40
-30 6 0 11 -4 11 -9 0 -11 150 -84 275 -134 22 -9 76 -23 120 -31 197 -37 270
-30 305 27 29 47 25 91 -14 161 -35 62 -143 176 -168 176 -7 0 -36 16 -63 36
-28 19 -81 51 -119 70 -92 46 -96 50 -96 99 0 95 -98 333 -181 442 -57 73
-188 197 -257 240 -31 20 -115 67 -187 104 -134 69 -162 92 -135 109 23 15 47
12 95 -10 41 -19 48 -19 79 -6 123 51 433 320 595 516 79 94 201 262 201 275
0 3 11 22 23 43 32 50 95 176 147 292 44 96 87 247 95 330 2 25 11 81 19 125
10 59 13 128 9 260 -4 158 -7 187 -28 240 -13 33 -67 191 -119 350 -53 160
-101 299 -106 310 -9 22 -140 393 -144 410 -7 31 -41 123 -52 140 -7 11 -16
36 -19 55 -3 19 -12 48 -20 65 -8 16 -30 75 -49 130 -19 55 -49 137 -65 183
-17 46 -38 104 -47 130 -8 26 -21 61 -29 77 -27 64 -40 100 -37 113 2 6 -1 12
-6 12 -6 0 -13 17 -17 38 -9 50 -42 146 -71 207 -12 28 -25 64 -27 81 -3 17
-10 39 -15 50 -14 24 -47 97 -47 104 -1 16 -71 222 -88 260 -11 25 -20 52 -20
60 0 8 -9 30 -19 48 -10 18 -18 39 -18 47 0 8 -9 29 -20 48 -11 19 -18 42 -14
51 3 9 2 16 -4 16 -5 0 -15 23 -22 50 -7 28 -16 50 -21 50 -5 0 -9 8 -9 18 0
10 -14 56 -30 102 -17 47 -33 93 -35 104 -2 10 -9 24 -16 32 -6 8 -8 14 -4 14
4 0 -2 16 -14 36 -12 19 -21 43 -21 53 0 10 -3 21 -7 25 -4 3 -8 12 -9 19 -4
31 -35 123 -47 141 -8 12 -22 48 -32 81 -10 33 -23 69 -29 80 -7 11 -23 54
-36 95 -12 41 -26 84 -30 95 -29 76 -96 294 -111 363 -7 28 -15 52 -19 52 -4
0 -7 6 -7 13 0 6 -17 64 -38 127 -63 194 -65 200 -65 213 0 7 5 18 12 25 21
21 45 -6 67 -80 13 -40 28 -86 35 -103 7 -16 25 -71 41 -122 15 -51 34 -94 41
-97 7 -3 28 0 46 7 45 16 385 16 513 -1 55 -7 170 -31 255 -52 330 -83 546
-172 885 -366 87 -50 301 -196 315 -214 3 -4 45 -39 94 -78 108 -87 218 -193
321 -310 42 -48 86 -98 98 -111 20 -22 26 -23 96 -17 41 4 81 10 88 14 9 6
-14 41 -80 123 -196 247 -462 510 -686 679 -18 14 -38 30 -44 36 -44 40 -269
194 -283 194 -3 0 -19 11 -36 25 -16 14 -36 25 -44 25 -8 0 -14 3 -14 8 0 4
-17 16 -37 27 -21 11 -60 33 -88 50 -117 71 -429 211 -560 252 -313 96 -299
93 -555 113 -162 12 -183 17 -188 43 -4 22 84 32 207 23 97 -6 105 -7 196 -26
28 -5 75 -15 105 -21 105 -20 334 -92 401 -126 26 -13 53 -23 61 -23 7 0 22
-6 33 -13 11 -7 47 -23 80 -36 33 -13 67 -29 75 -36 8 -6 35 -20 60 -30 38
-16 141 -71 200 -105 8 -5 40 -23 70 -41 78 -45 281 -183 373 -254 43 -33 87
-64 98 -70 10 -5 19 -13 19 -16 0 -3 35 -35 77 -70 90 -74 79 -64 213 -194
104 -101 149 -148 250 -265 30 -35 64 -72 75 -83 18 -17 20 -17 23 -2 6 28
-63 240 -85 263 -7 7 -13 21 -13 30 0 36 -176 324 -287 471 -227 298 -574 648
-828 836 -22 17 -44 33 -50 37 -5 4 -35 27 -65 50 -67 52 -109 82 -220 155
-147 97 -182 119 -300 187 -113 66 -124 72 -165 93 -11 5 -65 33 -120 61 -147
74 -269 130 -323 148 -26 9 -60 22 -77 30 -96 43 -304 112 -480 160 -291 78
-599 124 -702 104 -30 -5 -43 -4 -43 4 0 7 -3 7 -8 -1 -8 -13 -92 -6 -92 7 0
10 -39 17 -64 12z m170 -180 c3 -15 12 -40 19 -57 7 -16 23 -61 35 -100 12
-38 28 -83 35 -100 7 -16 19 -50 26 -75 7 -25 16 -50 20 -55 4 -6 10 -22 13
-35 3 -14 35 -110 71 -215 37 -104 84 -242 105 -305 21 -63 51 -149 66 -190
15 -41 64 -183 109 -315 98 -284 248 -715 265 -765 18 -50 23 -63 26 -80 2 -8
7 -23 13 -35 5 -11 32 -87 59 -170 28 -82 74 -215 102 -295 55 -157 100 -289
104 -305 1 -5 7 -20 14 -31 6 -12 22 -59 36 -105 14 -46 34 -111 46 -144 12
-33 50 -141 85 -240 134 -385 197 -562 215 -610 11 -27 39 -108 64 -180 24
-71 65 -188 91 -260 26 -71 48 -137 50 -145 2 -8 17 -51 34 -94 39 -103 45
-134 31 -151 -19 -23 -48 0 -64 53 -23 71 -56 164 -66 187 -4 11 -18 49 -29
85 -16 53 -80 236 -104 300 -3 8 -24 69 -46 135 -22 66 -67 199 -101 295 -34
96 -81 234 -105 305 -25 72 -67 195 -95 275 -28 80 -71 206 -96 280 -24 74
-49 144 -54 155 -5 11 -22 61 -38 110 -39 121 -159 465 -173 501 -7 16 -14 38
-16 48 -2 11 -28 87 -57 170 -30 83 -59 169 -66 191 -6 22 -16 49 -21 60 -10
21 -138 390 -194 560 -19 55 -50 145 -69 200 -20 55 -50 143 -67 195 -17 52
-40 117 -51 144 -11 27 -21 56 -23 65 -2 9 -23 70 -46 136 -83 240 -101 290
-104 305 -2 8 -14 44 -28 80 -43 110 -80 238 -73 255 9 24 44 1 52 -33z m2067
-5723 c43 -12 101 -59 123 -100 19 -37 18 -133 -2 -175 -71 -149 -285 -157
-360 -12 -36 71 -33 139 9 202 53 82 134 112 230 85z m-1283 -289 c163 -43
223 -241 113 -370 -50 -58 -101 -81 -179 -82 -99 0 -184 57 -220 150 -22 55
-14 146 17 202 26 46 95 95 154 109 42 9 43 9 115 -9z m1151 -380 c17 0 48
-84 65 -175 41 -227 -23 -402 -178 -481 -27 -13 -49 -24 -50 -23 -2 0 -21 -2
-42 -7 -132 -24 -338 124 -401 289 -10 26 -22 47 -26 47 -5 0 -9 7 -9 15 0 8
-4 15 -8 15 -10 0 -32 60 -32 88 0 26 17 35 135 78 138 49 144 51 245 80 52
15 133 39 180 55 47 15 91 26 98 23 8 -2 18 -4 23 -4z"/>
<path d="M3935 14378 c-27 -15 -60 -33 -72 -39 -13 -7 -24 -17 -24 -23 -1 -6
-3 -23 -5 -38 -1 -16 1 -28 6 -28 5 0 7 -92 4 -212 -9 -445 -22 -1262 -25
-1556 -1 -79 10 -103 43 -97 36 7 43 23 45 103 1 42 5 149 8 237 13 338 17
457 29 815 8 230 18 622 17 638 -3 40 5 113 19 176 6 27 9 49 8 50 -2 1 -25
-11 -53 -26z"/>
<path d="M2983 13742 c-18 -15 -48 -38 -67 -52 l-35 -25 0 -225 c-1 -322 -9
-1027 -16 -1285 -3 -121 -8 -400 -11 -620 -3 -220 -7 -555 -10 -745 -6 -365
-11 -801 -18 -1428 -2 -210 -1 -380 3 -377 5 2 7 -8 5 -23 -5 -39 -5 -71 -6
-342 0 -528 -3 -780 -8 -780 -3 0 -5 -105 -6 -233 -1 -127 -4 -353 -8 -502
-18 -741 -23 -1356 -12 -1374 4 -6 16 -16 28 -22 16 -9 19 -8 12 3 -6 11 -5
11 9 -1 9 -7 17 -9 17 -3 0 5 9 12 21 15 12 3 18 10 15 16 -4 5 -2 12 2 15 5
3 9 71 10 150 0 80 3 150 7 156 3 5 1 18 -4 28 -6 11 -8 22 -5 24 2 3 6 147 9
319 2 173 5 398 6 500 1 102 -1 190 -4 196 -4 6 -3 13 1 17 4 4 8 131 9 282 1
152 4 281 6 288 3 7 1 19 -3 26 -5 8 -6 18 -3 22 7 12 8 246 1 253 -3 3 -2 20
1 38 6 26 12 356 11 588 0 31 4 77 9 103 5 25 5 48 1 51 -4 2 -5 132 -3 287 5
342 14 937 15 958 0 8 0 40 -1 70 -2 52 2 378 14 1120 3 184 8 547 10 805 11
1151 18 1519 29 1673 3 34 4 62 3 62 -1 0 -16 -13 -34 -28z"/>
<path d="M11956 13754 c-13 -13 -16 -46 -16 -202 0 -414 -5 -632 -13 -632 -4
0 -4 -7 1 -16 5 -9 6 -35 1 -58 -4 -22 -7 -135 -8 -251 0 -227 -7 -746 -16
-1185 -12 -578 -15 -757 -15 -825 1 -38 1 -77 1 -85 0 -8 -2 -78 -3 -155 -2
-77 1 -146 5 -152 5 -7 6 -13 1 -13 -5 0 -6 -54 -2 -122 4 -68 10 -319 12
-558 4 -384 1 -484 -19 -630 -2 -19 -5 -83 -6 -142 l-1 -108 -42 -10 c-79 -21
-107 -32 -134 -54 -51 -41 -161 -116 -170 -116 -6 0 -12 -3 -14 -8 -5 -13
-137 -121 -199 -163 -85 -57 -146 -86 -267 -126 -59 -19 -129 -45 -157 -57
-27 -13 -75 -31 -105 -41 -79 -25 -172 -70 -193 -92 -36 -41 3 -109 50 -85 63
33 215 92 236 92 7 0 46 16 86 35 79 39 99 42 107 20 4 -8 23 -23 43 -32 34
-16 110 -62 121 -73 9 -9 44 -30 68 -40 12 -5 28 -14 35 -20 21 -19 111 -74
147 -91 19 -9 55 -32 80 -50 25 -19 63 -43 85 -55 63 -33 169 -96 185 -110 8
-7 53 -34 100 -60 47 -25 117 -67 155 -93 39 -25 87 -55 108 -66 21 -11 46
-27 55 -35 9 -8 42 -28 72 -44 30 -16 66 -37 80 -46 25 -17 87 -55 125 -77 11
-7 63 -38 115 -70 131 -80 152 -93 173 -99 9 -4 17 -10 17 -15 0 -4 21 -19 48
-32 50 -25 89 -47 106 -60 37 -26 88 -57 96 -57 4 0 10 -3 12 -7 2 -5 19 -16
38 -26 19 -10 51 -28 70 -40 20 -12 51 -31 69 -42 18 -11 49 -30 67 -42 19
-13 49 -30 67 -39 17 -9 34 -20 37 -24 3 -4 28 -20 55 -35 28 -16 52 -32 55
-35 3 -3 16 -11 30 -17 14 -7 43 -24 65 -37 22 -14 74 -44 115 -68 41 -23 80
-46 85 -50 21 -18 120 -80 149 -93 33 -15 35 -17 132 -82 35 -23 73 -44 86
-48 13 -4 32 -15 43 -25 25 -22 103 -70 173 -106 28 -15 52 -30 52 -33 0 -4
17 -15 38 -25 49 -24 49 -24 128 -76 38 -25 95 -58 126 -74 32 -16 66 -36 75
-45 25 -23 92 -61 107 -61 6 0 17 18 23 41 10 40 10 41 -21 60 -17 10 -38 23
-46 29 -37 25 -119 75 -160 98 -25 13 -61 34 -80 47 -107 68 -200 125 -204
125 -3 0 -33 18 -67 40 -34 22 -67 40 -73 40 -6 0 -23 11 -38 25 -15 14 -30
25 -33 25 -3 0 -24 12 -48 27 -23 15 -53 33 -67 40 -14 7 -38 22 -55 33 -16
11 -50 31 -75 45 -25 14 -76 46 -115 70 -38 25 -79 49 -90 54 -12 5 -27 16
-34 25 -7 9 -20 16 -29 16 -8 0 -35 15 -61 33 -25 18 -77 51 -116 72 -38 21
-88 50 -109 64 -21 14 -55 34 -75 45 -20 10 -38 21 -41 25 -4 6 -36 25 -145
86 -11 6 -46 27 -77 48 -31 20 -61 37 -66 37 -5 0 -17 9 -27 20 -10 11 -21 20
-26 20 -4 0 -55 29 -114 65 -59 36 -109 65 -111 65 -2 0 -23 14 -47 30 -25 17
-50 30 -55 30 -6 0 -15 6 -19 13 -4 7 -19 18 -33 25 -89 46 -109 57 -140 81
-19 15 -51 34 -70 44 -19 9 -48 26 -65 37 -16 11 -50 31 -75 45 -25 13 -76 45
-115 70 -38 25 -90 56 -115 71 -63 35 -182 107 -245 147 -123 77 -155 96 -155
91 0 -2 -27 13 -59 36 -33 22 -62 40 -66 40 -3 0 -28 16 -55 35 -27 19 -54 35
-59 35 -5 0 -37 18 -71 41 -34 23 -86 52 -116 65 -74 32 -73 55 1 83 31 12 67
28 80 37 14 9 25 12 25 8 0 -5 4 -4 8 2 4 5 25 21 47 34 22 13 42 27 45 30 3
4 26 20 51 38 25 17 76 60 114 96 66 64 175 146 194 146 5 0 11 4 13 9 2 6 26
13 53 17 28 3 54 8 58 11 7 4 258 33 302 34 11 1 44 5 72 10 50 8 56 6 113
-29 93 -57 130 -79 192 -111 31 -17 59 -35 62 -40 4 -5 26 -19 51 -31 25 -12
45 -25 45 -30 0 -4 11 -11 24 -14 13 -3 52 -24 87 -46 35 -21 75 -45 89 -53
56 -31 106 -60 115 -67 6 -4 37 -22 70 -40 58 -31 110 -63 167 -102 15 -10 33
-18 40 -18 7 0 27 -9 43 -20 26 -18 99 -61 270 -160 24 -14 131 -77 239 -140
108 -63 223 -129 255 -145 32 -17 65 -36 73 -43 8 -6 35 -23 59 -36 24 -13 60
-33 79 -44 19 -12 45 -26 58 -32 13 -5 38 -21 56 -35 18 -14 37 -25 43 -25 5
0 18 -9 28 -20 10 -11 24 -20 32 -20 8 0 48 -20 89 -45 40 -25 76 -45 80 -45
3 0 24 -13 47 -28 23 -16 94 -57 157 -92 63 -35 134 -76 157 -92 23 -15 45
-28 48 -28 4 0 18 -9 32 -20 14 -11 29 -20 34 -20 4 0 9 24 11 53 l3 52 -62
43 c-34 23 -64 42 -67 42 -3 0 -60 33 -128 73 -272 162 -316 187 -327 187 -6
0 -11 4 -11 9 0 5 -8 11 -17 14 -19 6 -95 48 -103 58 -6 6 -55 36 -120 71 -68
38 -207 120 -285 168 -38 23 -71 42 -73 41 -1 -1 -26 14 -56 34 -29 19 -57 35
-61 35 -5 0 -16 6 -24 14 -9 8 -38 26 -66 41 -27 14 -68 37 -90 51 -22 13 -60
35 -85 49 -25 14 -52 29 -60 35 -57 36 -259 154 -293 172 -23 11 -44 23 -47
27 -5 6 -20 15 -88 52 -20 11 -55 31 -77 45 -22 13 -51 30 -65 37 -14 6 -27
14 -30 18 -8 10 -222 131 -277 158 -18 8 -33 19 -33 23 0 4 -5 8 -12 8 -6 0
-19 6 -27 14 -9 7 -45 29 -80 47 -61 31 -63 33 -40 43 13 5 56 24 96 43 40 18
75 33 78 33 3 0 11 5 18 10 7 6 34 25 62 43 27 17 89 71 138 119 70 69 87 91
82 107 -4 14 0 23 15 31 11 6 20 17 20 25 0 29 21 20 230 -93 47 -25 87 -48
90 -51 3 -3 10 -6 15 -6 10 0 22 -7 150 -80 33 -19 68 -35 78 -35 9 0 17 -4
17 -9 0 -9 86 -58 100 -58 3 0 24 -12 47 -26 24 -15 47 -27 53 -27 6 0 13 -6
16 -14 3 -8 19 -18 36 -21 27 -6 82 -37 114 -64 7 -6 14 -7 18 -4 3 3 13 0 21
-7 9 -7 35 -23 58 -35 23 -12 85 -44 137 -71 52 -27 97 -52 100 -56 3 -4 30
-20 60 -35 51 -26 82 -43 120 -65 8 -4 22 -11 30 -15 8 -4 17 -9 20 -12 3 -3
34 -21 70 -38 36 -18 72 -37 80 -41 8 -5 42 -22 75 -38 33 -16 62 -32 65 -35
3 -4 36 -22 73 -42 37 -19 75 -41 84 -49 14 -11 16 -11 8 1 -4 8 12 1 36 -16
24 -17 54 -33 67 -37 12 -4 22 -12 22 -17 0 -5 3 -8 8 -7 4 1 35 -13 70 -31
l63 -32 -3 108 c-2 76 -7 108 -15 108 -7 0 -18 6 -24 13 -7 6 -21 12 -32 12
-10 0 -33 11 -51 25 -18 14 -40 25 -48 25 -9 0 -21 7 -28 15 -7 8 -18 15 -25
15 -6 0 -20 9 -30 20 -10 11 -25 20 -33 20 -8 0 -64 27 -124 60 -60 33 -111
60 -115 60 -3 0 -21 11 -38 25 -18 13 -52 32 -76 41 -24 10 -46 20 -49 24 -3
3 -45 25 -95 50 -49 24 -109 57 -131 72 -23 15 -45 28 -49 28 -4 0 -30 13 -56
30 -27 16 -49 27 -49 23 0 -3 -8 1 -17 10 -10 8 -30 19 -45 22 -16 4 -28 11
-28 15 0 5 -9 11 -19 15 -11 3 -36 17 -55 30 -20 13 -36 22 -36 19 0 -4 -30
11 -115 59 -22 13 -94 52 -160 86 -66 35 -124 67 -130 71 -5 4 -48 28 -95 52
-47 25 -134 71 -195 103 -60 32 -111 62 -113 67 -2 4 -8 8 -13 8 -9 0 -85 32
-119 49 -13 7 -15 234 -17 1937 -1 1061 -2 1937 -2 1946 -1 20 -110 130 -121
123 -5 -3 -4 -24 2 -47 5 -24 11 -63 13 -88 2 -25 4 -952 4 -2061 l1 -2017
-22 -26 c-96 -111 -204 -193 -332 -254 -99 -47 -153 -61 -296 -78 -74 -8 -167
-21 -207 -28 l-73 -12 0 210 c0 116 0 330 0 476 1 320 1 1717 0 1745 -1 11 -1
99 0 195 2 858 -10 2472 -20 2489 -13 25 -14 25 -34 5z"/>
<path d="M4351 13017 c-6 -7 -13 -51 -16 -98 -4 -80 -6 -162 -20 -879 -4 -168
-8 -379 -10 -470 -4 -164 -5 -678 -2 -797 1 -35 0 -63 -3 -63 -3 0 -3 -26 0
-58 3 -33 3 -72 0 -88 -3 -16 -5 -237 -5 -491 0 -255 -2 -463 -5 -463 -3 0 -6
-217 -7 -483 -3 -814 -11 -1466 -18 -1477 -3 -5 -1 -19 5 -30 6 -11 8 -25 5
-30 -3 -5 -8 -217 -10 -472 -3 -255 -8 -614 -10 -798 -3 -184 -5 -402 -4 -485
0 -82 0 -157 0 -165 0 -8 -3 -181 -6 -385 -3 -203 -9 -373 -14 -378 -4 -4 -59
-15 -122 -23 -121 -15 -139 -20 -237 -65 -35 -16 -68 -29 -74 -29 -31 0 -205
-129 -262 -195 -37 -42 -42 -45 -91 -45 -29 0 -59 -6 -71 -15 -10 -8 -25 -15
-32 -15 -25 0 -86 -34 -147 -80 -33 -25 -80 -59 -105 -75 -24 -17 -51 -36 -60
-43 -43 -37 -94 -72 -105 -72 -7 0 -19 -7 -26 -16 -40 -48 -123 -81 -231 -90
-35 -4 -92 -10 -128 -14 -36 -4 -89 -7 -117 -6 -32 0 -55 -4 -57 -10 -5 -12
-62 -44 -78 -44 -5 0 -36 -21 -69 -46 -33 -25 -62 -44 -65 -41 -3 2 -7 137 -9
298 -3 162 -7 391 -10 509 -5 235 -16 841 -20 1150 -2 107 -6 346 -9 530 -4
184 -9 463 -12 620 -2 157 -6 380 -9 495 -2 116 -7 354 -10 530 -6 321 -13
625 -14 657 -2 29 -30 49 -59 41 -54 -13 -54 -16 -52 -251 2 -317 5 -386 14
-400 4 -7 4 -18 -1 -25 -5 -7 -8 -30 -6 -52 3 -44 10 -408 18 -915 3 -179 7
-428 10 -555 3 -126 7 -352 9 -502 2 -149 6 -276 9 -280 3 -5 3 -14 -1 -20 -4
-7 -6 -36 -5 -65 5 -135 14 -540 19 -851 8 -579 21 -993 30 -1009 6 -9 -29
-75 -53 -103 -59 -68 -231 -166 -373 -211 -68 -22 -105 -28 -181 -28 l-97 -1
31 -45 c62 -89 64 -90 126 -84 93 10 291 66 322 91 8 7 20 13 26 13 6 0 34 16
63 35 29 19 56 35 61 35 20 0 147 139 169 185 22 46 94 125 113 125 5 0 22 9
38 21 16 11 29 17 29 13 0 -3 6 -2 13 4 6 6 28 13 47 17 34 6 38 3 158 -117
67 -68 165 -166 217 -218 53 -52 110 -110 128 -128 178 -182 349 -358 604
-618 165 -170 386 -396 490 -501 103 -106 348 -355 543 -554 195 -200 454
-463 575 -585 121 -123 242 -246 269 -273 27 -28 53 -51 58 -51 4 0 8 -4 8
-10 0 -9 99 -112 375 -390 144 -145 153 -152 225 -172 35 -10 73 -18 84 -18
18 0 18 1 4 12 -8 7 -20 21 -25 31 -10 19 -156 174 -367 391 -291 298 -764
781 -906 925 -142 145 -665 677 -1092 1113 -95 97 -306 313 -468 479 -162 167
-329 338 -370 379 -236 240 -321 332 -317 343 2 6 16 13 31 14 149 11 279 51
347 104 24 19 55 40 69 46 25 11 140 92 195 138 41 35 135 97 149 99 6 1 16 5
22 9 6 3 45 10 85 13 72 7 76 8 123 55 27 27 51 49 53 49 3 0 14 11 25 25 24
30 44 32 58 5 6 -11 15 -20 21 -20 7 0 126 -113 284 -270 110 -109 643 -635
744 -733 67 -64 121 -122 121 -127 0 -6 4 -10 9 -10 5 0 225 -215 488 -477
264 -263 499 -497 524 -520 24 -23 98 -97 165 -165 66 -68 139 -140 162 -160
23 -21 42 -42 42 -48 0 -5 7 -10 15 -10 8 0 15 -7 15 -15 0 -9 10 -20 23 -25
12 -5 19 -9 16 -9 -9 -1 263 -271 273 -271 4 0 8 -7 8 -15 0 -8 4 -15 9 -15
11 0 101 -90 101 -101 0 -5 4 -9 9 -9 11 0 231 -221 231 -231 0 -4 9 -11 20
-14 11 -3 20 -12 20 -19 0 -7 11 -19 25 -26 14 -7 25 -19 25 -27 0 -7 4 -13
10 -13 8 0 58 -48 158 -152 18 -18 420 -421 429 -430 4 -4 97 -95 205 -202
108 -106 204 -196 213 -199 8 -4 15 -12 15 -19 1 -27 43 -44 98 -40 52 4 69
21 39 39 -7 4 -22 22 -32 40 -11 17 -23 31 -26 30 -3 -1 -181 172 -395 385
-1073 1068 -1334 1325 -1339 1320 -3 -3 -5 0 -5 6 0 14 -126 142 -140 142 -5
0 -10 4 -10 9 0 8 -349 361 -407 412 -10 9 -44 43 -75 75 -47 48 -122 124
-178 179 -5 6 -31 32 -57 59 -27 26 -72 71 -101 100 -30 28 -140 136 -245 239
-106 104 -195 192 -199 195 -25 23 -1037 1044 -1054 1063 -12 13 -54 55 -93
93 -74 72 -83 90 -53 99 9 3 28 12 42 20 14 8 36 19 50 25 14 5 43 17 65 25
22 9 58 19 80 23 22 4 45 10 50 14 19 14 139 17 160 4 25 -15 61 -3 70 25 3
12 12 21 18 21 7 0 35 17 62 37 44 33 58 37 115 40 78 3 94 6 185 40 113 41
134 53 197 102 33 25 73 54 89 64 16 11 29 23 29 27 0 13 85 51 126 56 35 4
62 -9 124 -62 8 -8 37 -33 65 -56 27 -24 66 -60 86 -80 20 -21 39 -38 43 -38
8 0 52 -37 93 -77 18 -18 35 -33 38 -33 3 0 34 -27 68 -60 34 -33 65 -60 70
-60 4 0 15 -8 25 -18 10 -9 49 -44 87 -77 38 -33 76 -68 84 -77 9 -10 19 -18
24 -18 4 0 25 -18 47 -40 22 -22 43 -40 47 -40 5 0 16 -8 24 -17 14 -15 50
-48 158 -142 10 -9 47 -41 81 -71 35 -30 85 -74 110 -97 26 -24 54 -43 64 -43
12 0 16 10 17 43 1 23 2 55 3 70 1 19 -4 32 -16 38 -11 6 -34 25 -52 42 -18
18 -57 52 -86 77 -29 25 -64 57 -78 72 -14 16 -29 28 -33 28 -5 0 -23 15 -42
32 -71 70 -117 108 -128 108 -7 0 -9 3 -6 6 4 4 -16 25 -43 47 -28 22 -50 44
-50 49 0 4 -5 8 -11 8 -7 0 -19 8 -28 18 -18 20 -122 116 -193 177 -25 22 -72
63 -103 90 -32 28 -70 61 -85 75 -15 14 -51 45 -80 70 -104 89 -104 88 -90
105 7 8 20 15 30 15 20 0 96 50 179 117 91 74 167 110 266 128 97 18 102 19
125 28 8 3 42 11 74 17 51 9 88 28 116 61 3 3 14 11 26 17 18 9 54 37 121 92
7 6 15 10 19 10 3 0 17 9 31 20 14 11 32 20 39 20 7 0 48 -29 90 -64 43 -36
81 -63 85 -60 18 11 -14 68 -60 110 -52 47 -57 64 -18 64 13 0 34 8 47 17 14
10 26 17 28 15 12 -11 30 5 45 38 22 51 21 62 -2 77 -37 23 -224 -21 -247 -58
-3 -5 -12 -9 -20 -9 -8 0 -20 -5 -27 -10 -47 -40 -61 -50 -71 -50 -6 0 -35
-23 -65 -50 -29 -28 -56 -50 -61 -50 -4 0 -15 -9 -26 -21 -28 -31 -68 -49
-108 -49 -19 0 -47 -5 -62 -10 -15 -6 -45 -13 -68 -16 -22 -2 -48 -7 -57 -10
-10 -2 -32 -7 -50 -9 -65 -8 -169 -67 -276 -156 -61 -51 -134 -91 -193 -106
-8 -2 -52 -7 -97 -13 -45 -5 -91 -13 -102 -19 -11 -6 -27 -11 -36 -11 -9 0
-28 -8 -43 -18 -15 -10 -54 -36 -87 -57 -33 -21 -78 -56 -101 -77 -36 -35
-165 -98 -198 -98 -7 0 -26 -6 -42 -14 -16 -7 -61 -16 -101 -20 -45 -4 -85
-14 -107 -26 -19 -12 -37 -17 -40 -12 -6 9 -2 622 10 1832 3 338 6 633 6 655
-1 22 -1 74 0 115 0 41 0 164 0 273 1 113 5 197 10 197 5 0 6 5 3 11 -8 12 -7
383 1 1244 3 325 7 807 8 1072 0 266 4 483 7 483 3 0 4 15 2 33 -2 17 -2 100
-2 182 1 83 2 546 3 1031 1 733 -1 884 -13 897 -16 20 -35 22 -50 4z"/>
<path d="M1710 12474 c-14 -19 -38 -50 -55 -69 -58 -65 -94 -123 -94 -151 0
-16 -2 -44 -4 -61 -2 -18 1 -33 5 -33 5 0 9 -37 8 -82 0 -46 1 -92 1 -103 0
-11 -1 -91 -3 -177 -2 -87 -1 -158 2 -158 3 0 4 -19 2 -42 -1 -24 -4 -169 -6
-324 -1 -155 -6 -286 -10 -293 -4 -7 -3 -18 3 -24 5 -7 8 -33 5 -57 -6 -59 -6
-149 2 -161 3 -5 1 -9 -4 -9 -6 0 -7 -14 -2 -34 4 -19 4 -39 0 -46 -4 -7 -4
-27 0 -45 5 -20 3 -38 -3 -44 -7 -7 -7 -18 0 -34 7 -14 8 -29 2 -38 -5 -8 -6
-22 -3 -32 3 -9 7 -59 8 -110 1 -51 6 -99 11 -107 5 -8 4 -11 -3 -6 -16 10
-12 -55 6 -81 13 -21 13 -23 -2 -23 -14 0 -15 -4 -6 -20 8 -14 12 -174 13
-492 2 -431 3 -472 19 -482 34 -21 35 -12 43 319 5 207 10 330 16 362 1 4 0
10 -1 13 -5 14 -6 51 0 55 3 2 3 29 0 59 -3 32 -2 56 3 56 6 0 7 18 3 41 -4
26 -2 46 5 55 9 11 8 18 -1 29 -8 10 -9 15 -2 15 6 0 9 6 6 14 -3 8 0 17 5 21
6 3 9 11 5 16 -10 16 -11 69 -2 69 5 0 8 12 7 28 0 15 2 107 4 204 3 115 2
180 -5 184 -6 4 -5 10 3 15 15 9 21 149 6 149 -4 0 -3 8 2 19 6 10 8 21 4 24
-3 4 0 13 7 22 8 9 8 15 2 15 -6 0 -9 10 -6 23 3 12 4 103 4 202 -1 99 -1 185
0 190 0 6 3 116 5 245 3 129 8 276 10 325 6 107 8 161 5 235 -2 71 7 318 13
327 3 5 2 15 -2 25 -5 13 -11 10 -31 -18z"/>
<path d="M10611 12164 c0 -11 3 -14 6 -6 3 7 2 16 -1 19 -3 4 -6 -2 -5 -13z"/>
<path d="M10580 11730 c-7 -4 -18 -6 -24 -4 -34 12 -37 -10 -42 -292 -3 -153
-6 -346 -8 -429 -3 -194 -2 -205 35 -205 46 0 51 22 54 269 1 124 3 226 4 226
5 0 6 437 1 440 -3 2 -12 0 -20 -5z"/>
<path d="M10030 10911 c-133 -44 -209 -143 -210 -273 0 -121 42 -204 134 -262
88 -56 96 -55 169 16 89 88 169 144 239 167 48 16 57 54 33 137 -27 92 -72
147 -157 190 -51 26 -164 40 -208 25z"/>
<path d="M10375 10471 c-22 -10 -49 -27 -60 -38 -11 -10 -42 -34 -70 -53 -55
-37 -95 -78 -95 -98 0 -7 31 -45 69 -85 38 -39 91 -99 117 -131 27 -33 71 -84
98 -115 27 -31 61 -69 75 -86 14 -16 62 -73 105 -125 153 -183 273 -310 292
-310 8 0 27 11 42 25 15 14 46 38 69 53 24 15 43 31 43 36 0 10 -41 75 -127
203 -35 51 -63 97 -63 102 0 5 -4 11 -8 13 -4 2 -23 26 -42 53 -46 68 -99 147
-110 165 -5 8 -38 55 -72 103 -35 48 -67 96 -73 105 -5 9 -30 48 -54 87 -24
38 -50 80 -57 93 -17 27 -27 27 -79 3z"/>
<path d="M10329 9956 c-6 -6 8 -391 20 -571 6 -82 13 -208 16 -280 7 -156 13
-215 25 -215 4 0 31 19 59 43 l52 42 -6 60 c-3 33 -8 121 -10 195 -3 74 -9
158 -14 185 -5 28 -10 115 -11 195 -3 226 3 203 -70 293 -44 54 -52 62 -61 53z"/>
<path d="M11038 9407 c-23 -18 -52 -49 -63 -69 -57 -102 -125 -177 -240 -266
-60 -47 -131 -107 -156 -134 -26 -26 -53 -48 -61 -48 -15 0 -92 -73 -203 -192
-117 -126 -175 -295 -175 -508 0 -128 32 -269 86 -378 61 -123 119 -175 107
-94 -3 20 -10 43 -16 50 -5 6 -7 12 -5 12 3 0 -1 30 -9 68 -44 213 -57 461
-29 556 35 115 181 294 305 373 75 47 235 170 292 225 66 62 157 184 186 248
23 50 45 190 30 190 -3 0 -25 -15 -49 -33z"/>
<path d="M10444 8553 c-21 -27 -42 -50 -46 -53 -18 -13 -27 -65 -23 -132 2
-40 7 -167 10 -283 3 -115 8 -232 10 -260 10 -116 16 -230 21 -395 2 -96 6
-224 9 -285 3 -60 7 -200 10 -310 7 -293 17 -469 26 -453 24 42 70 218 85 319
14 103 15 149 4 420 -6 167 -15 444 -19 614 -7 257 -17 509 -26 670 -1 17 -2
67 -3 113 -1 45 -6 82 -11 82 -5 0 -26 -21 -47 -47z"/>
<path d="M895 8199 c-15 -48 -32 -141 -39 -219 -5 -58 -19 -183 -37 -338 -6
-51 -12 -134 -15 -185 -4 -107 -13 -235 -18 -292 -3 -22 -7 -121 -11 -220 -4
-99 -9 -198 -11 -220 -3 -22 -7 -170 -9 -330 -10 -638 -20 -1065 -30 -1236 -3
-53 -6 -182 -6 -286 -1 -213 -7 -187 92 -386 27 -55 49 -104 49 -110 0 -7 11
-25 23 -41 l24 -29 0 34 c3 128 2 253 -2 260 -7 10 -6 590 1 804 2 94 6 438 8
765 2 327 6 611 8 630 3 19 3 39 0 44 -3 5 -4 39 -3 75 2 81 1 453 -2 783 -1
135 1 244 4 242 3 -2 6 3 6 11 0 8 -3 15 -6 15 -3 0 -5 46 -3 103 2 56 -1 113
-6 126 l-9 25 -8 -25z"/>
<path d="M9766 7973 c-33 -8 -121 -60 -186 -107 -45 -34 -72 -46 -96 -46 -36
0 -107 31 -120 51 -8 14 -34 -43 -34 -76 0 -24 84 -108 150 -150 28 -18 47
-42 69 -88 34 -71 63 -102 86 -94 12 5 15 25 15 102 0 56 4 96 10 96 14 2 15
2 100 28 138 43 216 99 227 164 11 72 -54 128 -147 126 -30 -1 -64 -4 -74 -6z"/>
<path d="M10125 7694 c-22 -20 -67 -59 -99 -87 -33 -29 -69 -62 -82 -73 -12
-12 -37 -32 -56 -45 -18 -13 -35 -26 -38 -29 -22 -27 -229 -170 -247 -170 -6
0 -35 -13 -63 -30 -28 -16 -63 -33 -78 -36 -15 -4 -31 -9 -37 -12 -5 -4 -24
-7 -40 -9 -17 -1 -50 -10 -73 -20 l-41 -18 38 -42 c21 -24 43 -43 48 -43 18 0
164 49 176 59 7 5 32 17 57 27 25 10 59 28 75 40 26 19 59 39 150 88 26 14
167 125 182 144 32 38 93 46 93 12 0 -11 19 -32 48 -51 26 -18 49 -36 52 -39
3 -4 40 -32 83 -64 l77 -57 0 61 c0 33 -4 60 -9 60 -5 0 -19 11 -32 25 -13 13
-28 25 -32 25 -10 0 -140 99 -149 114 -15 23 -7 41 43 87 l51 48 -22 35 c-12
20 -25 36 -28 36 -4 0 -25 -17 -47 -36z"/>
<path d="M10636 6998 c4 -94 1 -163 -9 -234 -8 -56 -13 -113 -10 -126 3 -14
-10 -66 -30 -119 -84 -227 -207 -644 -227 -766 -7 -44 -17 -73 -24 -73 -10 0
-141 95 -391 284 -33 25 -94 70 -135 100 -41 30 -84 62 -95 70 -11 9 -67 51
-125 93 -58 43 -119 88 -135 100 -17 13 -50 37 -75 55 -25 17 -54 41 -65 53
-11 12 -28 24 -37 27 -9 4 -44 28 -78 55 -64 49 -114 85 -218 159 -32 23 -64
49 -71 58 -7 9 -18 16 -23 16 -5 0 -25 12 -43 26 -37 28 -62 29 -79 2 -19 -30
-14 -35 215 -208 18 -14 66 -51 106 -82 40 -32 75 -58 78 -58 3 0 42 -27 87
-61 126 -92 140 -103 152 -115 6 -6 25 -19 41 -30 17 -10 53 -37 80 -59 62
-49 109 -84 140 -105 36 -24 136 -101 154 -119 9 -9 42 -33 74 -54 31 -20 67
-45 78 -55 12 -9 36 -28 53 -42 17 -14 43 -32 59 -39 15 -8 27 -18 27 -22 0
-4 17 -18 38 -30 20 -13 42 -27 47 -31 6 -5 28 -22 50 -38 76 -56 77 -59 69
-120 -12 -96 -19 -351 -13 -460 13 -208 65 -432 131 -558 11 -22 13 -22 19 -5
4 10 5 34 3 53 -2 19 -8 157 -14 305 -6 149 -15 353 -21 455 -15 260 -4 325
122 701 27 81 49 157 49 170 0 23 35 150 79 286 34 105 52 236 51 371 -1 70
-1 130 -1 135 1 4 10 -1 20 -10 35 -32 54 -48 105 -85 28 -21 66 -50 85 -65
19 -16 51 -39 71 -53 20 -14 52 -37 71 -53 29 -23 144 -111 238 -182 14 -10
122 -91 239 -180 117 -88 223 -167 235 -175 13 -8 58 -42 101 -75 43 -33 88
-67 100 -75 11 -8 88 -66 171 -128 82 -62 319 -240 525 -395 206 -154 380
-285 385 -289 6 -5 51 -38 100 -75 50 -37 95 -71 100 -75 6 -5 64 -49 130 -98
66 -49 125 -93 130 -98 76 -60 270 -197 282 -198 8 -2 26 -13 39 -25 13 -12
24 -18 24 -13 0 5 4 4 8 -1 6 -9 129 -102 300 -227 20 -15 46 -36 57 -46 11
-10 49 -41 85 -68 36 -27 68 -53 72 -59 4 -5 8 0 8 13 0 12 4 22 8 22 8 0 32
43 32 58 0 4 -44 41 -97 82 -53 41 -105 83 -115 93 -10 9 -20 17 -23 17 -3 0
-17 10 -31 23 -14 12 -31 22 -39 22 -12 0 -47 23 -88 59 -12 10 -49 37 -82 59
-33 23 -64 45 -70 49 -76 61 -164 128 -169 128 -4 0 -19 11 -34 25 -15 14 -34
32 -43 40 -9 8 -21 15 -26 15 -10 0 -38 20 -82 60 -9 8 -49 37 -88 64 -40 27
-82 60 -95 73 -12 12 -28 23 -35 23 -8 0 -29 16 -49 35 -19 19 -39 35 -44 35
-9 0 -39 23 -80 60 -9 8 -42 33 -73 54 -32 21 -61 44 -65 50 -4 6 -15 16 -24
21 -9 6 -78 55 -152 110 -75 55 -156 114 -181 131 -24 18 -70 52 -102 76 -52
40 -121 92 -178 134 -11 8 -52 39 -92 69 -39 30 -74 55 -78 55 -4 0 -14 7 -23
16 -20 20 -271 210 -325 245 -21 15 -42 31 -46 36 -3 6 -19 17 -36 26 -16 8
-41 27 -54 41 -14 14 -31 26 -38 26 -8 0 -16 7 -19 15 -4 8 -11 15 -16 15 -9
0 -124 84 -238 175 -46 36 -144 109 -212 158 -22 15 -51 39 -66 53 -15 14 -40
32 -55 40 -15 8 -37 23 -47 32 -31 28 -49 42 -54 42 -3 0 -33 21 -67 48 -33
26 -71 54 -82 62 -12 8 -28 21 -36 28 -19 18 -146 102 -155 102 -4 0 -4 -60 0
-132z"/>
<path d="M8964 7078 c-18 -18 -37 -43 -43 -55 -11 -21 -10 -23 17 -23 49 0
212 -57 302 -105 30 -17 59 -32 64 -34 5 -2 20 -13 34 -25 154 -128 210 -205
222 -299 3 -32 12 -62 19 -67 20 -11 78 -15 249 -14 83 1 152 -2 152 -6 0 -19
-142 -43 -270 -46 -102 -2 -135 -6 -135 -16 0 -40 168 -59 346 -39 75 9 129
22 194 48 150 60 200 100 210 166 12 76 -33 137 -120 162 -131 40 -224 39
-454 -2 -88 -16 -94 -16 -103 1 -37 66 -224 225 -346 294 -116 65 -159 81
-240 88 -66 6 -67 6 -98 -28z"/>
<path d="M6769 6229 c-1 -30 -3 -65 -4 -79 -3 -25 -10 -123 -20 -255 -3 -38
-7 -95 -10 -125 -9 -107 -14 -166 -20 -250 -7 -107 -15 -216 -19 -256 -2 -17
-7 -76 -11 -130 -4 -55 -9 -115 -11 -134 -2 -19 -6 -69 -9 -110 -3 -41 -7 -95
-10 -120 -4 -38 -19 -246 -29 -400 -2 -25 -6 -70 -10 -100 -7 -59 -11 -123
-22 -291 -7 -122 -10 -118 92 -111 l52 4 5 71 c6 84 45 573 51 632 2 22 7 81
10 130 4 50 9 113 11 140 3 28 7 88 10 135 3 47 7 105 10 130 2 25 7 88 10
140 3 52 8 106 10 120 3 14 12 126 20 250 8 124 19 268 25 320 5 52 12 139 16
192 l6 98 -48 21 c-27 11 -61 23 -76 26 -28 5 -28 5 -29 -48z"/>
<path d="M7638 6196 c-66 -16 -69 -20 -58 -96 5 -36 14 -117 20 -180 6 -63 15
-158 20 -210 6 -52 15 -149 20 -215 17 -228 41 -480 47 -500 3 -11 5 -37 5
-58 -1 -22 3 -89 8 -150 5 -62 17 -191 25 -287 9 -96 17 -195 20 -220 4 -38 8
-91 19 -215 1 -11 6 -56 10 -100 4 -44 9 -100 11 -125 13 -157 19 -196 27
-207 12 -16 164 -11 180 5 9 9 3 98 -17 262 -6 50 -35 313 -40 365 -1 17 -5
50 -9 75 -7 49 -8 60 -31 285 -9 83 -18 161 -20 175 -3 14 -7 48 -10 75 -3 28
-7 66 -10 85 -6 49 -12 99 -35 315 -11 105 -32 287 -46 405 -14 118 -33 285
-42 370 -19 172 -15 166 -94 146z"/>
<path d="M8110 6185 c0 -10 69 -436 80 -494 21 -111 16 -128 -48 -190 -32 -31
-79 -81 -103 -111 -56 -69 -77 -95 -111 -135 -25 -29 -27 -38 -23 -90 2 -32 6
-59 8 -61 2 -3 19 15 38 38 19 24 48 57 64 74 17 18 48 53 70 80 120 146 146
153 158 44 4 -30 14 -102 22 -160 9 -58 18 -118 20 -135 3 -16 7 -46 9 -65 3
-19 8 -53 11 -76 3 -22 10 -56 15 -75 6 -19 10 -61 10 -94 l0 -60 -88 -91
c-48 -50 -105 -115 -127 -144 -22 -29 -57 -70 -78 -91 -36 -38 -37 -40 -31
-94 4 -32 12 -55 19 -55 6 0 25 19 42 43 17 23 72 85 122 137 51 52 97 102
104 110 7 9 24 23 39 32 25 16 27 16 33 0 4 -9 8 -44 10 -77 2 -34 8 -73 14
-88 9 -24 16 -27 55 -27 64 0 72 14 57 108 -6 42 -21 138 -31 212 -11 74 -22
141 -25 148 -2 7 -7 45 -11 85 -3 39 -8 76 -11 80 -3 4 -15 83 -28 175 -13 92
-33 228 -45 302 -12 74 -23 151 -26 170 -14 105 -55 381 -59 392 -2 7 -6 35
-9 62 -3 27 -7 49 -8 51 -2 1 -17 11 -35 24 -36 24 -103 54 -103 46z"/>
<path d="M7085 6153 c-22 -9 -41 -20 -43 -25 -2 -4 -9 -8 -17 -8 -7 0 -17 -6
-23 -13 -11 -13 -26 -147 -17 -147 3 0 36 15 74 34 82 42 99 70 81 135 -6 22
-12 41 -13 40 -1 0 -20 -7 -42 -16z"/>
<path d="M7249 6166 c-2 -3 -4 -116 -3 -252 l2 -247 -56 -51 c-128 -117 -190
-173 -225 -203 -33 -28 -37 -37 -37 -77 0 -25 3 -46 6 -46 10 0 67 42 109 81
22 20 56 50 75 65 19 16 48 42 65 57 16 15 39 26 50 25 18 -3 19 -10 16 -135
-2 -106 0 -133 11 -134 7 -1 31 -2 53 -2 l40 -2 1 200 0 200 97 -1 c96 0 97 0
97 23 0 49 -15 60 -87 67 -116 12 -105 -12 -102 224 l2 207 -54 3 c-30 2 -57
1 -60 -2z"/>
<path d="M10582 5933 c-8 -16 -28 -90 -53 -198 -12 -54 -18 -109 -33 -320 -4
-54 1 -253 20 -780 3 -99 10 -188 16 -198 5 -10 6 -47 2 -87 -3 -38 -4 -80 0
-94 6 -23 12 -26 50 -26 78 0 78 -1 71 119 -3 58 -10 250 -15 426 -6 176 -13
375 -16 443 l-5 123 23 -12 c12 -6 55 -37 96 -68 41 -31 84 -63 96 -71 36 -25
101 -74 116 -88 19 -16 160 -120 280 -207 52 -38 101 -75 109 -83 8 -7 26 -21
40 -30 14 -9 51 -35 81 -59 30 -23 80 -61 110 -83 30 -22 66 -49 80 -59 14
-11 57 -43 95 -72 39 -29 72 -55 75 -58 3 -3 12 -10 21 -16 40 -25 96 -64 119
-84 29 -24 40 -32 62 -46 9 -5 78 -57 154 -115 76 -58 148 -112 160 -120 12
-8 69 -50 126 -92 129 -96 127 -95 218 -166 41 -32 91 -68 110 -80 19 -11 49
-33 65 -48 17 -14 41 -34 55 -42 14 -9 29 -22 33 -29 4 -7 13 -13 19 -13 11 0
88 -57 100 -74 3 -5 20 -17 37 -25 16 -9 64 -43 106 -76 43 -33 84 -64 93 -70
9 -5 21 -15 27 -21 5 -6 32 -26 58 -45 27 -19 65 -47 85 -62 20 -15 48 -35 62
-44 14 -10 43 -32 65 -51 22 -18 45 -37 51 -42 16 -12 67 43 62 66 -2 10 -12
23 -23 29 -30 15 -289 211 -304 229 -8 9 -20 16 -27 16 -8 0 -14 4 -14 8 0 5
-12 15 -27 23 -15 8 -34 20 -43 27 -29 25 -143 107 -177 128 -19 12 -48 35
-63 53 -16 17 -36 31 -44 31 -8 0 -16 4 -18 8 -3 10 -300 236 -497 380 -13 9
-50 37 -82 62 -32 25 -92 70 -134 100 -42 30 -99 73 -127 95 -28 22 -76 58
-107 79 -52 37 -194 142 -251 187 -14 10 -74 55 -135 99 -60 44 -121 89 -135
100 -26 21 -150 112 -225 165 -24 17 -76 56 -117 87 -69 53 -415 310 -467 346
-13 10 -35 26 -49 38 -28 23 -27 12 -36 313 -4 102 -8 186 -10 189 -3 2 -9 -5
-14 -15z"/>
<path d="M7848 5664 c-7 -30 10 -82 30 -88 9 -2 57 -10 105 -16 68 -10 94 -10
111 -1 33 18 47 46 37 74 -10 27 -28 31 -187 43 -84 6 -91 5 -96 -12z"/>
<path d="M6927 5214 c-4 -4 -7 -22 -7 -41 0 -32 2 -33 38 -33 20 0 91 -9 157
-19 66 -11 147 -22 180 -26 33 -4 106 -13 161 -21 147 -20 144 -21 141 24 l-2
37 -55 7 c-30 4 -80 9 -110 12 -139 14 -467 55 -481 60 -8 4 -18 3 -22 0z"/>
<path d="M8681 5087 c-30 -30 -13 -53 109 -147 46 -36 97 -77 113 -92 17 -16
33 -28 37 -28 6 0 25 -15 85 -68 11 -9 36 -28 55 -42 47 -33 48 -33 103 -79
26 -22 69 -55 95 -73 26 -18 61 -45 77 -60 17 -15 33 -28 36 -28 3 0 18 -10
31 -22 14 -13 86 -68 159 -123 73 -55 175 -134 228 -176 53 -42 106 -82 119
-88 21 -11 21 -13 7 -41 -8 -16 -15 -31 -15 -33 0 -6 91 -41 170 -65 36 -11
101 -24 145 -27 44 -4 89 -9 100 -12 57 -12 400 3 400 18 0 1 10 3 22 4 40 4
14 -13 -45 -30 -31 -9 -64 -18 -72 -21 -8 -3 -16 -4 -16 -2 -1 2 -10 -4 -20
-13 -17 -15 -67 -23 -204 -34 -33 -3 -263 19 -305 29 -31 7 -137 35 -158 42
-17 5 -18 1 -12 -43 10 -76 13 -80 63 -103 87 -42 168 -58 314 -66 l142 -7 74
-56 c40 -31 121 -93 178 -138 58 -46 107 -83 109 -83 6 0 55 -41 74 -62 8 -10
21 -18 28 -18 7 0 13 -3 13 -7 1 -5 33 -30 72 -58 39 -27 82 -60 95 -72 13
-13 26 -23 28 -23 3 0 13 -6 22 -14 10 -8 56 -45 103 -81 47 -36 100 -79 118
-96 18 -16 36 -29 40 -29 7 0 53 -36 83 -65 9 -8 21 -15 27 -15 5 0 12 -4 14
-8 2 -5 44 -39 93 -77 50 -38 110 -85 135 -105 25 -20 52 -41 61 -46 17 -10
81 -61 138 -110 20 -17 46 -34 59 -38 12 -4 22 -11 22 -16 0 -5 21 -24 47 -42
26 -17 56 -39 66 -48 33 -27 54 -44 86 -70 17 -14 48 -40 68 -57 20 -18 43
-33 50 -33 7 0 13 -5 13 -10 0 -6 26 -27 57 -47 64 -41 62 -39 118 -88 72 -62
80 -63 120 -25 l35 34 -32 20 c-18 11 -40 27 -48 36 -8 9 -44 37 -80 63 -36
26 -92 69 -125 95 -34 26 -76 58 -95 72 -18 14 -38 30 -44 36 -6 5 -51 41
-101 79 -49 38 -103 79 -120 92 -47 36 -47 37 -100 73 -27 19 -52 38 -55 41
-3 4 -27 24 -54 44 -28 21 -55 42 -60 47 -13 10 -146 114 -281 218 -54 41
-116 90 -139 109 -22 18 -70 54 -106 79 -36 26 -71 52 -78 59 -6 6 -56 44
-110 84 -53 40 -125 96 -159 124 -34 27 -98 77 -143 110 -45 33 -89 67 -98 76
-9 9 -28 22 -40 29 -23 11 -23 12 -5 24 10 7 54 17 99 24 123 17 451 144 462
179 5 17 -157 135 -258 187 -151 78 -228 104 -316 107 -43 1 -85 4 -92 7 -21
7 -52 88 -52 133 0 26 -5 42 -15 45 -17 7 -146 -37 -220 -74 -53 -26 -91 -52
-166 -114 -44 -37 -69 -47 -69 -29 0 5 -9 13 -20 16 -11 3 -20 13 -20 20 0 8
-118 103 -262 211 -145 109 -279 210 -298 224 -202 153 -521 390 -525 390 -3
0 -29 17 -58 39 -75 56 -111 73 -126 58z"/>
<path d="M7250 4916 l0 -105 -62 -55 c-163 -143 -258 -224 -292 -246 -25 -18
-36 -33 -36 -50 0 -14 -3 -42 -7 -64 -8 -51 -1 -47 124 74 54 53 124 114 156
135 109 74 118 75 121 13 2 -31 4 -33 39 -32 59 2 70 17 65 95 -3 37 -2 73 2
79 6 9 36 9 121 2 63 -6 123 -14 133 -18 17 -7 18 -4 13 26 -4 18 -7 40 -7 50
0 14 -12 19 -57 23 -224 25 -203 16 -203 90 0 36 -5 68 -12 75 -7 7 -31 12
-55 12 l-43 0 0 -104z"/>
<path d="M7952 4744 c3 -32 7 -37 43 -49 34 -11 68 -19 135 -32 8 -1 26 -5 40
-8 19 -5 32 1 54 24 18 19 26 35 20 40 -14 13 -236 61 -281 61 -10 0 -13 -11
-11 -36z"/>
<path d="M8230 4309 c-48 -49 -38 -73 65 -154 28 -22 66 -54 85 -72 19 -18 38
-33 41 -33 3 0 17 -10 31 -22 51 -47 106 -94 133 -113 16 -11 42 -34 59 -50
17 -17 47 -42 66 -56 19 -15 45 -36 57 -48 12 -12 24 -21 27 -21 3 0 16 -10
29 -22 13 -13 38 -34 56 -48 18 -14 43 -34 56 -45 131 -113 145 -125 194 -163
19 -15 39 -32 45 -37 13 -12 134 -113 190 -158 21 -18 48 -41 60 -52 12 -11
38 -32 58 -47 20 -15 42 -33 50 -40 7 -7 54 -46 103 -87 50 -41 95 -80 100
-85 6 -6 33 -29 60 -50 28 -22 60 -49 71 -60 12 -12 30 -28 40 -36 93 -74 238
-196 270 -227 13 -13 26 -23 28 -23 3 0 16 -9 28 -19 13 -10 75 -62 138 -115
63 -53 139 -118 169 -144 29 -26 58 -49 65 -51 6 -2 13 -7 16 -10 12 -14 108
-98 144 -126 22 -16 49 -39 62 -50 12 -11 36 -31 53 -45 17 -14 46 -38 65 -55
48 -43 76 -65 80 -65 3 0 26 -21 53 -46 26 -26 64 -58 83 -73 19 -14 56 -45
82 -69 25 -24 61 -53 80 -64 18 -11 35 -23 38 -27 3 -3 37 -33 75 -66 39 -33
84 -73 102 -90 32 -30 127 -106 150 -119 7 -4 30 2 52 14 37 18 39 22 28 43
-13 25 -70 83 -138 139 -24 20 -56 47 -70 60 -38 34 -119 101 -142 118 -10 8
-39 34 -64 58 -24 23 -47 42 -51 42 -4 0 -39 28 -77 63 -39 34 -88 76 -110 92
-37 28 -92 76 -140 120 -33 30 -68 55 -77 55 -4 0 -8 6 -8 13 0 6 -20 24 -43
39 -44 29 -122 93 -194 159 -23 22 -45 39 -48 39 -3 0 -27 21 -53 46 -26 25
-59 52 -74 60 -16 8 -28 19 -28 24 0 6 -4 10 -10 10 -5 0 -33 22 -62 50 -29
27 -57 50 -62 50 -5 0 -18 10 -30 23 -12 12 -41 38 -64 57 -24 19 -54 44 -67
55 -12 11 -37 31 -55 44 -18 14 -45 37 -60 51 -33 31 -82 73 -135 115 -20 17
-50 41 -65 55 -16 14 -43 36 -60 50 -17 14 -40 32 -49 40 -10 8 -38 31 -61 50
-24 19 -66 55 -94 81 -28 25 -82 69 -121 99 -38 30 -82 66 -96 80 -47 46 -101
90 -110 90 -5 0 -9 3 -9 8 0 4 -16 18 -36 31 -20 14 -51 39 -69 55 -72 67
-117 106 -122 106 -3 0 -18 12 -32 28 -15 15 -54 47 -86 71 -33 25 -69 53 -80
62 -146 129 -194 169 -198 169 -4 0 -94 79 -140 123 -16 15 -31 27 -34 27 -8
0 -92 72 -132 113 -21 20 -40 37 -43 37 -4 0 -21 -14 -38 -31z"/>
<path d="M10743 4273 c-35 -14 1 -84 51 -99 52 -15 249 -118 328 -171 118 -79
310 -261 599 -567 157 -166 294 -297 330 -316 10 -6 19 -17 19 -26 0 -8 8 -17
18 -21 9 -3 29 -18 43 -32 14 -14 58 -51 99 -81 40 -30 84 -65 99 -77 35 -30
37 -32 106 -78 53 -35 137 -96 172 -125 7 -6 15 -10 18 -10 3 0 27 -15 53 -33
43 -30 99 -59 227 -117 28 -13 86 -34 130 -46 l80 -23 43 42 c47 46 45 50 -33
62 -27 4 -68 16 -89 26 -22 10 -44 19 -50 19 -5 0 -47 18 -92 40 -46 22 -85
40 -88 40 -8 0 -190 124 -237 161 -20 16 -40 29 -43 29 -4 0 -12 4 -19 10 -54
44 -76 60 -82 60 -4 0 -27 17 -50 38 -23 20 -56 48 -74 62 -18 14 -56 47 -85
73 -28 27 -62 56 -76 65 -39 26 -170 154 -170 166 0 26 -374 408 -563 576
-187 166 -328 256 -510 324 -91 34 -126 41 -154 29z"/>
<path d="M6840 4243 c0 -10 -3 -27 -5 -38 -10 -40 4 -44 221 -60 115 -8 245
-22 289 -30 44 -8 105 -16 135 -19 30 -3 88 -10 128 -16 41 -7 76 -10 78 -7 3
2 2 23 -2 45 l-6 41 -67 6 c-108 9 -312 35 -533 66 -243 34 -238 34 -238 12z"/>
<path d="M6816 3942 c-3 -9 -4 -46 -2 -82 3 -48 9 -67 21 -75 20 -11 83 -66
129 -110 17 -16 51 -46 74 -65 24 -19 63 -53 86 -75 24 -22 81 -71 127 -110
46 -38 115 -99 154 -135 68 -62 181 -163 229 -205 158 -136 297 -265 506 -465
41 -39 86 -80 192 -176 14 -13 31 -24 37 -24 6 0 11 -4 11 -8 0 -4 21 -24 48
-44 26 -20 56 -45 67 -55 11 -10 39 -30 62 -45 23 -15 55 -40 71 -55 27 -25
84 -75 175 -153 16 -14 41 -36 56 -50 55 -50 116 -100 124 -100 4 0 7 -6 7
-14 0 -8 8 -17 18 -20 9 -3 42 -30 73 -59 50 -45 90 -82 220 -197 16 -14 50
-43 75 -65 26 -22 65 -57 87 -78 23 -20 59 -52 81 -70 23 -17 54 -44 69 -59
16 -16 30 -28 31 -28 2 0 23 -19 47 -41 24 -23 61 -54 81 -69 21 -15 34 -30
31 -34 -3 -3 -1 -6 4 -6 6 0 26 -15 45 -32 18 -18 76 -68 128 -112 52 -43 106
-89 120 -102 80 -76 112 -104 119 -104 4 0 16 -10 28 -22 23 -26 54 -52 104
-87 19 -14 38 -30 42 -37 6 -11 15 -10 42 4 19 9 35 22 35 28 0 19 -220 230
-326 312 -24 19 -44 39 -44 43 0 5 -4 9 -9 9 -5 0 -37 26 -70 58 -33 31 -80
73 -103 92 -23 19 -72 63 -108 98 -35 34 -68 62 -72 62 -4 0 -22 15 -41 33
-44 42 -127 118 -213 192 -38 33 -89 79 -113 103 -24 23 -45 42 -48 42 -2 0
-14 10 -27 23 -12 12 -44 40 -71 62 -63 51 -137 117 -150 132 -5 7 -27 26 -49
42 -21 17 -62 52 -91 78 -29 27 -81 73 -115 103 -35 30 -80 71 -101 90 -21 19
-51 46 -67 60 -16 14 -62 54 -102 90 -41 36 -116 103 -169 150 -53 47 -110 99
-127 115 -18 17 -49 46 -70 65 -22 19 -82 73 -134 120 -52 47 -103 93 -114
103 -11 9 -24 17 -28 17 -8 0 -45 32 -128 110 -14 14 -48 43 -75 65 -26 22
-67 58 -91 80 -23 22 -66 61 -96 86 -29 26 -65 57 -79 70 -104 95 -131 119
-184 163 -33 27 -77 66 -98 88 -20 21 -58 54 -83 73 -25 19 -42 35 -37 35 4 0
-3 6 -16 13 -13 6 -23 16 -22 21 1 4 -11 17 -28 27 -17 10 -31 23 -31 28 0 5
-11 12 -25 15 -14 4 -25 13 -25 21 0 8 -3 15 -8 15 -4 0 -19 11 -34 25 -24 22
-27 23 -32 7z"/>
</g>
</svg>
